<svg width="20" height="20" viewBox="0 0 20 20" fill="none" xmlns="http://www.w3.org/2000/svg">
<path d="M19.1437 0.763907C18.9601 0.644759 18.7549 0.562948 18.5397 0.523146C18.3244 0.483344 18.1035 0.486331 17.8895 0.531938C17.6754 0.577545 17.4724 0.664877 17.2921 0.788945C17.1118 0.913013 16.9578 1.07139 16.8387 1.25502L7.49981 15.65L2.94536 11.4389C2.78468 11.2903 2.5963 11.1749 2.39099 11.0991C2.18567 11.0233 1.96745 10.9887 1.74876 10.9973C1.30712 11.0146 0.890427 11.2066 0.590364 11.5311C0.290301 11.8557 0.131444 12.2861 0.148739 12.7277C0.166034 13.1694 0.358064 13.5861 0.682586 13.8861L6.66259 19.415C6.66259 19.415 6.83425 19.5628 6.9137 19.6145C7.0973 19.7337 7.3026 19.8156 7.51786 19.8554C7.73313 19.8953 7.95413 19.8923 8.16825 19.8467C8.38237 19.8011 8.5854 19.7137 8.76573 19.5896C8.94607 19.4655 9.10018 19.3071 9.21925 19.1234L19.6348 3.06891C19.754 2.88533 19.8358 2.68007 19.8756 2.46486C19.9154 2.24966 19.9124 2.02872 19.8668 1.81466C19.8212 1.60061 19.7338 1.39764 19.6098 1.21735C19.4857 1.03706 19.3273 0.882977 19.1437 0.763907Z" fill="#E44900"/>
</svg>
