<svg width="8" height="8" viewBox="0 0 8 8" fill="none" xmlns="http://www.w3.org/2000/svg">
<path fill-rule="evenodd" clip-rule="evenodd" d="M3.93043 0.490431C3.06007 0.490431 2.35451 1.19599 2.35451 2.06635C2.35451 2.93671 3.06007 3.64227 3.93043 3.64227C4.80078 3.64227 5.50635 2.93671 5.50635 2.06635C5.50635 1.19599 4.80078 0.490431 3.93043 0.490431ZM1.86407 2.06635C1.86407 0.925137 2.78921 0 3.93043 0C5.07164 0 5.99678 0.925137 5.99678 2.06635C5.99678 3.20756 5.07164 4.1327 3.93043 4.1327C2.78921 4.1327 1.86407 3.20756 1.86407 2.06635Z" fill="#E44900"/>
<path fill-rule="evenodd" clip-rule="evenodd" d="M1.15155 4.97479C1.88887 4.23747 2.88889 3.82324 3.93163 3.82324C4.97436 3.82324 5.97438 4.23747 6.7117 4.97479C7.44903 5.71211 7.86325 6.71213 7.86325 7.75487V8.00008H0V7.75487C0 6.71213 0.414224 5.71211 1.15155 4.97479ZM3.93163 4.31367C3.01896 4.31367 2.14368 4.67623 1.49833 5.32158C0.91103 5.90888 0.557938 6.68661 0.499172 7.50965H7.36408C7.30531 6.68661 6.95222 5.90888 6.36492 5.32158C5.71957 4.67623 4.84429 4.31367 3.93163 4.31367Z" fill="#E44900"/>
</svg>
