<svg width="21" height="20" viewBox="0 0 21 20" fill="none" xmlns="http://www.w3.org/2000/svg">
<path fill-rule="evenodd" clip-rule="evenodd" d="M8.86328 2C5.54958 2 2.86328 4.68629 2.86328 8C2.86328 11.3137 5.54957 14 8.86328 14C10.5179 14 12.0161 13.3302 13.1015 12.247C13.1044 12.2441 13.1073 12.2412 13.1102 12.2382C13.1125 12.236 13.1147 12.2338 13.117 12.2316C14.1963 11.1467 14.8633 9.65123 14.8633 8C14.8633 4.68629 12.177 2 8.86328 2ZM16.4319 14.1491C15.72 13.4362 15.677 12.3136 16.106 11.402C16.5917 10.3696 16.8633 9.21653 16.8633 8C16.8633 3.58173 13.2816 0 8.86328 0C4.44501 0 0.863281 3.58173 0.863281 8C0.863281 12.4183 4.44501 16 8.86328 16C10.0817 16 11.2366 15.7276 12.2702 15.2404C13.1833 14.81 14.3084 14.8531 15.0217 15.5673L19.1557 19.7066C19.546 20.0974 20.1792 20.0978 20.5699 19.7076C20.9607 19.3173 20.9611 18.6841 20.5708 18.2933L16.4319 14.1491Z" fill="white"/>
</svg>
