<svg width="8" height="8" viewBox="0 0 8 8" fill="none" xmlns="http://www.w3.org/2000/svg">
<path d="M3.0188 0.658085L3.3433 1.23955C3.63615 1.76429 3.5186 2.45266 3.05735 2.9139C3.05735 2.9139 2.49794 3.4734 3.51225 4.48775C4.52625 5.50175 5.0861 4.94265 5.0861 4.94265C5.54735 4.4814 6.2357 4.36385 6.76045 4.6567L7.3419 4.9812C8.1343 5.4234 8.22785 6.5346 7.5314 7.2311C7.1129 7.6496 6.6002 7.97525 6.03345 7.9967C5.0794 8.0329 3.45915 7.79145 1.83385 6.16615C0.208566 4.54085 -0.032894 2.92061 0.00327604 1.96655C0.024761 1.3998 0.350401 0.887115 0.768906 0.468615C1.46538 -0.22786 2.57659 -0.13428 3.0188 0.658085Z" fill="#E44900"/>
</svg>
