<svg width="66" height="66" viewBox="0 0 66 66" fill="none" xmlns="http://www.w3.org/2000/svg">
<g clip-path="url(#clip0_448_2711)">
<path d="M53.0357 34.7678V12.375H5.89282V57.1607H37.7143" stroke="#0D1619" stroke-width="1.6"/>
<path d="M50.6785 57.2389C55.9292 57.2389 60.1857 52.9824 60.1857 47.7318C60.1857 42.4811 55.9292 38.2246 50.6785 38.2246C45.4279 38.2246 41.1714 42.4811 41.1714 47.7318C41.1714 52.9824 45.4279 57.2389 50.6785 57.2389Z" stroke="#E44900" stroke-width="1.6"/>
<path d="M45.8184 47.2411L49.3429 50.7277L55.5389 44.4746" stroke="#E44900" stroke-width="1.6"/>
<path d="M16.5 7.66016V15.9101" stroke="#0D1619" stroke-width="1.6"/>
<path d="M42.4287 7.66016V15.9101" stroke="#0D1619" stroke-width="1.6"/>
<path d="M53.0359 22.9824H5.89307" stroke="#0D1619" stroke-width="1.6"/>
<path d="M14.1428 33H21.2143" stroke="#0D1619" stroke-width="1.6"/>
<path d="M25.9287 33H33.0001" stroke="#0D1619" stroke-width="1.6"/>
<path d="M37.7141 33H44.7855" stroke="#0D1619" stroke-width="1.6"/>
<path d="M14.1428 42.4297H21.2143" stroke="#0D1619" stroke-width="1.6"/>
<path d="M25.9287 42.4297H33.0001" stroke="#0D1619" stroke-width="1.6"/>
</g>
<defs>
<clipPath id="clip0_448_2711">
<rect width="66" height="66" fill="white"/>
</clipPath>
</defs>
</svg>
