<svg width="74" height="74" viewBox="0 0 74 74" fill="none" xmlns="http://www.w3.org/2000/svg">
<path d="M49.3335 6.16602V29.5309H44.7085L53.9585 38.541L63.2085 29.5309H58.5835V13.8743M58.5835 6.16602V10.791" stroke="#E44900" stroke-width="1.6"/>
<path d="M36.9998 10.791V29.5309H33.9165L41.6248 36.9994L44.7082 33.996" stroke="#E44900" stroke-width="1.6"/>
<path d="M34.2148 57.851V63.2086C34.2148 66.2929 27.869 68.7932 20.0412 68.7932C12.2134 68.7932 5.86768 66.2929 5.86768 63.2086V57.3887" stroke="#0D1619" stroke-width="1.6"/>
<path d="M34.2158 48.847V54.2047C34.2158 57.289 27.87 59.7892 20.0422 59.7892C12.2144 59.7892 5.86865 57.289 5.86865 54.2047V48.3848" stroke="#0D1619" stroke-width="1.6"/>
<path d="M66.5909 57.6087V62.9664C66.5909 66.0507 60.2451 68.551 52.4173 68.551C44.5895 68.551 38.2437 66.0507 38.2437 62.9664V57.1465" stroke="#0D1619" stroke-width="1.6"/>
<path d="M34.2158 39.8432V45.2008C34.2158 48.2851 27.87 50.7853 20.0422 50.7853C12.2144 50.7853 5.86865 48.2851 5.86865 45.2008V39.3809" stroke="#0D1619" stroke-width="1.6"/>
<path d="M66.5909 48.6048V53.9624C66.5909 57.0466 60.2451 59.5471 52.4173 59.5471C44.5895 59.5471 38.2437 57.0466 38.2437 53.9624V48.1426" stroke="#0D1619" stroke-width="1.6"/>
<path d="M7.68301 55.2227C6.5277 55.966 5.86865 56.824 5.86865 57.7379C5.86865 60.5733 12.2142 62.8719 20.0419 62.8719C27.8696 62.8719 34.2152 60.5733 34.2152 57.7379C34.2152 56.8947 33.6542 56.0991 32.6601 55.3973" stroke="#0D1619" stroke-width="1.6"/>
<path d="M7.68301 46.2207C6.5277 46.9639 5.86865 47.822 5.86865 48.7358C5.86865 51.5714 12.2142 53.87 20.0419 53.87C27.8696 53.87 34.2152 51.5714 34.2152 48.7358C34.2152 47.8928 33.6542 47.0971 32.6601 46.3952" stroke="#0D1619" stroke-width="1.6"/>
<path d="M40.058 54.9805C38.9027 55.7239 38.2437 56.5818 38.2437 57.4957C38.2437 60.3311 44.5893 62.6298 52.417 62.6298C60.2446 62.6298 66.5903 60.3311 66.5903 57.4957C66.5903 56.6526 66.0293 55.8569 65.0352 55.1551" stroke="#0D1619" stroke-width="1.6"/>
<path d="M34.2251 39.6774C34.2251 40.1592 34.0003 40.7242 33.3735 41.353C32.7417 41.9868 31.7655 42.6143 30.4612 43.1677C27.8574 44.2725 24.1743 44.9857 20.0417 44.9857C15.9091 44.9857 12.2261 44.2725 9.62225 43.1677C8.31794 42.6143 7.34185 41.9868 6.71008 41.353C6.08325 40.7242 5.8584 40.1592 5.8584 39.6774C5.8584 39.1958 6.08325 38.6308 6.71008 38.0019C7.34185 37.3681 8.31794 36.7407 9.62225 36.1872C12.2261 35.0823 15.9091 34.3691 20.0417 34.3691C24.1743 34.3691 27.8574 35.0823 30.4612 36.1872C31.7655 36.7407 32.7417 37.3681 33.3735 38.0019C34.0003 38.6308 34.2251 39.1958 34.2251 39.6774Z" stroke="#0D1619" stroke-width="1.6"/>
<path d="M66.6001 48.439C66.6001 48.9207 66.3753 49.4858 65.7484 50.1146C65.1167 50.7484 64.1405 51.3758 62.8362 51.9293C60.2324 53.0342 56.5493 53.7472 52.4167 53.7472C48.2841 53.7472 44.6011 53.0342 41.9972 51.9293C40.693 51.3758 39.7168 50.7484 39.085 50.1146C38.4582 49.4858 38.2334 48.9207 38.2334 48.439C38.2334 47.9574 38.4582 47.3923 39.085 46.7635C39.7168 46.1297 40.693 45.5023 41.9972 44.9488C44.6011 43.8439 48.2841 43.1309 52.4167 43.1309C56.5493 43.1309 60.2324 43.8439 62.8362 44.9488C64.1405 45.5023 65.1167 46.1297 65.7484 46.7635C66.3753 47.3923 66.6001 47.9574 66.6001 48.439Z" stroke="#0D1619" stroke-width="1.6"/>
</svg>
