<svg width="34" height="34" viewBox="0 0 34 34" fill="none" xmlns="http://www.w3.org/2000/svg">
<path d="M27.5177 18.3839V7.1875H3.94629V29.5803H19.857" stroke="#0D1619" stroke-width="1.44"/>
<path d="M26.3395 29.6185C28.9648 29.6185 31.0931 27.4902 31.0931 24.8649C31.0931 22.2396 28.9648 20.1113 26.3395 20.1113C23.7142 20.1113 21.5859 22.2396 21.5859 24.8649C21.5859 27.4902 23.7142 29.6185 26.3395 29.6185Z" stroke="#E44900" stroke-width="1.44"/>
<path d="M23.9092 24.6215L25.6714 26.3648L28.7695 23.2383" stroke="#E44900" stroke-width="1.44"/>
<path d="M9.25 4.83008V8.95507" stroke="#0D1619" stroke-width="1.44"/>
<path d="M22.2144 4.83008V8.95507" stroke="#0D1619" stroke-width="1.44"/>
<path d="M27.5177 12.4902H3.94629" stroke="#0D1619" stroke-width="1.44"/>
<path d="M8.07129 17.5H11.607" stroke="#0D1619" stroke-width="1.44"/>
<path d="M13.9644 17.5H17.5" stroke="#0D1619" stroke-width="1.44"/>
<path d="M19.8569 17.5H23.3926" stroke="#0D1619" stroke-width="1.44"/>
<path d="M8.07129 22.2148H11.607" stroke="#0D1619" stroke-width="1.44"/>
<path d="M13.9644 22.2148H17.5" stroke="#0D1619" stroke-width="1.44"/>
</svg>
