<svg width="34" height="35" viewBox="0 0 34 35" fill="none" xmlns="http://www.w3.org/2000/svg">
<path d="M3.81801 19.5863L3.53564 16.3452L7.48876 13.6934L10.8772 14.5773L12.0067 19.5863L8.33589 22.238L3.81801 19.5863Z" stroke="black" stroke-width="1.44"/>
<path d="M12.5714 13.9896L9.46533 11.0432L11.4419 7.50748L13.9832 7.21289L16.2422 9.27539L15.6774 13.4004L12.5714 13.9896Z" stroke="black" stroke-width="1.44"/>
<path d="M18.7833 14.579L18.501 9.86465L21.607 9.27539L24.1483 9.86465L24.713 13.4004L21.0423 16.3468L18.7833 14.579Z" stroke="black" stroke-width="1.44"/>
<path d="M24.7133 29.016L23.8662 24.5963L27.537 23.123L30.643 24.5963L30.0783 29.6052L24.7133 29.016Z" stroke="black" stroke-width="1.44"/>
<path d="M13.7007 22.8296L15.6772 18.1152L20.1952 18.7046V22.8296L17.6538 24.0081L13.7007 22.8296Z" stroke="black" stroke-width="1.44"/>
<path d="M13.7007 28.721L14.5478 25.4799L17.6538 25.7745L19.9127 24.8906L22.4541 27.2477L20.1952 29.0156H15.1125L13.7007 28.721Z" stroke="black" stroke-width="1.44"/>
<path d="M26.1252 10.7475L25.8428 8.0957L28.1018 8.39037L29.2312 9.27428L27.8193 11.0421L26.1252 10.7475Z" stroke="black" stroke-width="1.44"/>
<path d="M5.22998 11.9275L6.07708 10.4543L7.48889 9.57031L8.05367 11.9275L6.92418 12.8114L5.22998 11.9275Z" stroke="black" stroke-width="1.44"/>
<path d="M27.2141 16.346L28.5801 17.2299L28.8748 17.8192M5.598 26.3639L4.41943 27.837V28.721M25.4998 15.1674L23.7855 16.6406L24.6427 20.1764L27.2141 21.3549L30.6426 20.1764V16.0514L27.2141 13.6942L25.4998 15.1674ZM16.6427 6.62277L17.7855 8.09596H19.7855L20.9284 5.14955L19.7855 4.26562L17.7855 5.14955L16.6427 6.62277ZM6.35693 23.1228L10.9284 24.3014L12.3569 29.0156L8.64263 30.1942H2.64264L2.35693 29.0156L2.92836 26.3639L6.35693 23.1228ZM14.3569 15.1674V16.6406L17.2141 15.7567L14.3569 15.1674Z" stroke="#E44900" stroke-width="1.44"/>
</svg>
