<svg width="33" height="35" viewBox="0 0 33 35" fill="none" xmlns="http://www.w3.org/2000/svg">
<path d="M4.53471 9.00112C9.79444 8.5297 13.8987 5.4654 15.2933 3.99219C16.688 5.4654 20.7922 8.5297 26.0519 9.00112V15.4833C26.1516 19.4119 24.1393 28.035 15.2933 31.0994C6.44735 28.035 4.4351 19.4119 4.53471 15.4833V9.00112Z" stroke="black" stroke-width="1.44"/>
<path d="M21.9248 15.3981C22.0334 15.9 22.0908 16.4221 22.0908 16.9581C22.0908 20.8636 19.0476 24.0296 15.2937 24.0296C11.5397 24.0296 8.49658 20.8636 8.49658 16.9581C8.49658 13.0527 11.5397 9.88672 15.2937 9.88672C16.726 9.88672 18.0549 10.3476 19.1507 11.1347" stroke="black" stroke-width="1.44"/>
<path d="M11.1558 15.6416L15.3004 19.3398L22.4842 11.0898" stroke="#E44900" stroke-width="1.44"/>
</svg>
