<svg width="34" height="35" viewBox="0 0 34 35" fill="none" xmlns="http://www.w3.org/2000/svg">
<path d="M9.33496 13.7059C11.3093 10.5225 14.8355 8.40234 18.857 8.40234C25.0406 8.40234 30.0534 13.4152 30.0534 19.5988C30.0534 25.7824 25.0406 30.7952 18.857 30.7952C14.8355 30.7952 11.3093 28.6751 9.33496 25.4917" stroke="black" stroke-width="1.44"/>
<path d="M18.857 6.674C19.5296 6.674 20.0749 6.12874 20.0749 5.45614C20.0749 4.78353 19.5296 4.23828 18.857 4.23828C18.1844 4.23828 17.6392 4.78353 17.6392 5.45614C17.6392 6.12874 18.1844 6.674 18.857 6.674Z" stroke="black" stroke-width="1.44"/>
<path d="M18.8571 20.2278C19.2042 20.2278 19.4857 19.9464 19.4857 19.5993C19.4857 19.2521 19.2042 18.9707 18.8571 18.9707C18.5099 18.9707 18.2285 19.2521 18.2285 19.5993C18.2285 19.9464 18.5099 20.2278 18.8571 20.2278Z" stroke="black" stroke-width="1.44"/>
<path d="M18.8574 11.3477V18.7137" stroke="black" stroke-width="1.44"/>
<path d="M13.5539 16.0625H2.35742" stroke="#E44900" stroke-width="1.44"/>
<path d="M10.0178 19.5996H3.53564" stroke="#E44900" stroke-width="1.44"/>
<path d="M11.786 19.5996H10.6074" stroke="#E44900" stroke-width="1.44"/>
<path d="M10.6073 23.1348H5.89307" stroke="#E44900" stroke-width="1.44"/>
<path d="M18.8574 6.63477V8.4026" stroke="black" stroke-width="1.44"/>
<path d="M24.1611 23.4283L19.4468 19.8926" stroke="black" stroke-width="1.44"/>
</svg>
