<svg width="84" height="84" viewBox="0 0 84 84" fill="none" xmlns="http://www.w3.org/2000/svg">
<path d="M18 63.9414C23.1859 58.7554 29.6326 55.5988 36.3535 54.4707M66.0001 63.9415C60.8143 58.7558 54.368 55.5988 47.6474 54.4707" stroke="#0D1619" stroke-width="1.6"/>
<path d="M27 57.7499L29.25 73.4999L27 74.25M32.25 56.25L34.5 72.75H42H42.75H49.4999L51.7499 56.25M56.9999 57.7499L54.7499 73.4999L56.9999 74.25" stroke="#0D1619" stroke-width="1.6"/>
<path d="M33 33L33.5138 41.0353C33.6864 43.734 34.8933 46.2619 36.8832 48.0927L38.8916 49.9404C39.6323 50.6218 40.6022 51 41.6086 51H42.3912C43.3978 51 44.3676 50.6218 45.1084 49.9404L47.1167 48.0927C49.1066 46.2619 50.3136 43.734 50.4862 41.0353L51 33" stroke="#0D1619" stroke-width="1.6"/>
<path d="M36 47.25V52.5C36 55.8136 38.6864 58.5001 42 58.5001C45.3138 58.5001 48.0001 55.8136 48.0001 52.5V47.25" stroke="#0D1619" stroke-width="1.6"/>
<path d="M52.5 33C52.5 25.5441 47.799 19.5 42 19.5C36.201 19.5 31.5 25.5441 31.5 33" stroke="#E44900" stroke-width="1.6"/>
<path d="M42 20.25V24.75" stroke="#E44900" stroke-width="1.6"/>
<path d="M28.5 34.5014C37.1833 31.1246 46.8169 31.1246 55.5 34.5014" stroke="#E44900" stroke-width="1.6"/>
<path d="M16.5 49.5C12.9655 50.1426 8.19232 52.1715 7.5 57" stroke="#0D1619" stroke-width="1.6"/>
<path d="M22.5 49.5C24.4185 49.8488 26.7023 50.6062 28.4999 51.998" stroke="#0D1619" stroke-width="1.6"/>
<path d="M13.6576 43.5503L13.5 41.9305V40.5001C13.5 37.1863 16.1863 34.5 19.4999 34.5C22.8137 34.5 25.5 37.1863 25.5 40.5001V41.9305L25.3425 43.5503C25.1083 45.9565 23.9738 48.1855 22.1661 49.7908L21.5845 50.307C21.0819 50.7535 20.433 51 19.7609 51H19.2392C18.5668 51 17.9181 50.7535 17.4154 50.307L16.8339 49.7908C15.0262 48.1855 13.8917 45.9565 13.6576 43.5503Z" stroke="#0D1619" stroke-width="1.6"/>
<path d="M67.5 49.5C71.0345 50.1426 75.8078 52.1715 76.5001 57" stroke="#0D1619" stroke-width="1.6"/>
<path d="M61.4999 49.5C59.5813 49.8488 57.2976 50.6062 55.5 51.998" stroke="#0D1619" stroke-width="1.6"/>
<path d="M70.3424 43.5503L70.4999 41.9305V40.5001C70.4999 37.1863 67.8137 34.5 64.5001 34.5C61.1863 34.5 58.5 37.1863 58.5 40.5001V41.9305L58.6575 43.5503C58.8917 45.9565 60.0262 48.1855 61.8339 49.7908L62.4155 50.307C62.9181 50.7535 63.5669 51 64.2391 51H64.7608C65.4331 51 66.0819 50.7535 66.5847 50.307L67.1662 49.7908C68.9737 48.1855 70.1083 45.9565 70.3424 43.5503Z" stroke="#0D1619" stroke-width="1.6"/>
</svg>
