<svg width="74" height="74" viewBox="0 0 74 74" fill="none" xmlns="http://www.w3.org/2000/svg">
<path d="M17.474 9.27734L19.0699 14.1894L19.3469 15.0417H20.243H25.4078L21.2293 18.0775L20.5044 18.6042L20.7813 19.4564L22.3774 24.3685L18.1989 21.3326L17.474 20.806L16.7489 21.3326L12.5705 24.3685L14.1665 19.4564L14.4434 18.6042L13.7185 18.0775L9.54004 15.0417H14.7049H15.601L15.8779 14.1894L17.474 9.27734Z" stroke="#E44900" stroke-width="1.6"/>
<path d="M29.2917 37H40.1371C42.6617 37 44.7084 39.0467 44.7084 41.5714C44.7084 44.096 42.6617 46.1427 40.1371 46.1427H29.2917" stroke="#0D1619" stroke-width="1.6"/>
<path d="M33.0398 37.002V55.5006" stroke="#0D1619" stroke-width="1.6"/>
<path d="M38.5116 51.0762H29.2966" stroke="#0D1619" stroke-width="1.6"/>
<path d="M60.4333 31.1992H13.5667V59.5659H60.4333V31.1992Z" stroke="#0D1619" stroke-width="1.6"/>
<path d="M13.9429 36.7525L9.2063 37.9485L13.4047 53.0806M60.3812 54.981L64.7063 53.8889L60.3812 38.1233M15.0813 59.3382L16.9002 65.9603L41.9213 59.6424M58.7186 32.0888L57.0125 25.877L36.033 31.1081" stroke="#0D1619" stroke-width="1.6"/>
</svg>
