<svg width="70" height="70" viewBox="0 0 70 70" fill="none" xmlns="http://www.w3.org/2000/svg">
<path d="M44.3921 17.7022C43.563 18.2802 42.4073 18.9458 41.0735 18.9458H27.4738C17.0498 18.9458 8.66675 27.1075 8.66675 37.0937C8.66675 42.4541 11.0746 47.2787 14.9215 50.6081C15.7033 51.2847 16.1112 51.9271 16.3603 52.6417C16.4736 52.9669 16.5481 53.2916 16.6124 53.5745L16.6253 53.6311C16.6874 53.9055 16.7459 54.1636 16.8303 54.4509C17.3631 56.2644 18.9545 57.5829 20.7777 57.5829H24.0978C25.0036 57.5829 25.8088 57.0882 26.1953 56.3408C26.5508 55.6533 27.2621 55.2418 28.0152 55.2418H37.2219C37.975 55.2418 38.6862 55.6533 39.0416 56.3408C39.4281 57.0882 40.2334 57.5829 41.1393 57.5829H44.4767C46.3092 57.5829 47.8023 56.2687 48.0196 54.5879C48.1314 53.7226 48.7076 53.0826 49.3482 52.7448C50.7398 52.011 52.6258 50.4054 54.4486 48.6857C55.6243 47.5765 56.6733 46.5196 57.5188 45.6677C57.9957 45.1872 58.408 44.7718 58.7417 44.4491C59.4067 43.8061 60.2402 43.3715 61.0412 43.0746C62.7255 42.4502 63.8334 41.2367 63.8334 40.0203V34.8451C63.8334 33.8916 63.2203 33.007 62.2459 32.6537L60.7967 32.1282C59.9032 31.8042 59.1487 31.2311 58.585 30.5213C56.7856 28.2553 54.5975 26.1146 53.1307 24.796C52.2594 24.0127 51.6846 22.7398 52.0969 21.416C52.5701 19.8962 53.338 18.3556 54.0617 17.1035C54.3349 16.6308 54.334 16.0848 54.0944 15.673C53.8402 15.2359 53.3737 15.0067 52.9219 15.0605C48.3522 15.6038 45.6836 16.8017 44.3921 17.7022ZM44.3921 17.7022L43.7248 16.7451" stroke="black" stroke-width="3"/>
<path d="M4.99976 28.75C6.87475 28.75 8.74976 31.375 8.74976 34.3749" stroke="black" stroke-width="3"/>
<path d="M28.7498 36.3327C30.8669 36.3327 32.5832 34.6164 32.5832 32.4993C32.5832 30.3823 30.8669 28.666 28.7498 28.666C26.6327 28.666 24.9165 30.3823 24.9165 32.4993C24.9165 34.6164 26.6327 36.3327 28.7498 36.3327Z" stroke="#E44900" stroke-width="3"/>
<path d="M33.6615 18.7499C33.7198 18.3418 33.75 17.9244 33.75 17.5C33.75 12.6675 29.8325 8.75 25 8.75C20.1675 8.75 16.25 12.6675 16.25 17.5C16.25 18.9585 16.6069 20.3337 17.238 21.5429" stroke="black" stroke-width="3"/>
<path d="M38.7501 46.3327C40.8672 46.3327 42.5834 44.6164 42.5834 42.4993C42.5834 40.3823 40.8672 38.666 38.7501 38.666C36.633 38.666 34.9167 40.3823 34.9167 42.4993C34.9167 44.6164 36.633 46.3327 38.7501 46.3327Z" stroke="#E44900" stroke-width="3"/>
<path d="M41.25 30L26.25 45" stroke="#E44900" stroke-width="3"/>
</svg>
