<svg width="70" height="70" viewBox="0 0 70 70" fill="none" xmlns="http://www.w3.org/2000/svg">
<path d="M12.396 46.6673V31.3548M12.396 31.3548H52.5002M12.396 31.3548V27.709M39.3752 46.6673L52.5002 32.8132V31.3548M52.5002 31.3548V18.959H21.8752" stroke="#E44900" stroke-width="3"/>
<path d="M42.2915 23.334H48.854" stroke="#E44900" stroke-width="3"/>
<path d="M5.8335 55.416L11.6668 46.666H40.1043L45.9377 55.416M41.5627 48.1243H64.896" stroke="#0D1619" stroke-width="3"/>
<path d="M61.2498 48.125V56.875H57.604H64.8957" stroke="#0D1619" stroke-width="3"/>
<path d="M18.229 63C21.6117 63 24.354 60.2577 24.354 56.875C24.354 53.4923 21.6117 50.75 18.229 50.75C14.8463 50.75 12.104 53.4923 12.104 56.875C12.104 60.2577 14.8463 63 18.229 63Z" stroke="#0D1619" stroke-width="3"/>
<path d="M34.271 63C37.6537 63 40.396 60.2577 40.396 56.875C40.396 53.4923 37.6537 50.75 34.271 50.75C30.8883 50.75 28.146 53.4923 28.146 56.875C28.146 60.2577 30.8883 63 34.271 63Z" stroke="#0D1619" stroke-width="3"/>
<path d="M5.8335 7.29102H16.0926C18.4807 7.29102 20.4168 9.22704 20.4168 11.6153C20.4168 14.0035 18.4807 15.9395 16.0926 15.9395H5.8335" stroke="#0D1619" stroke-width="3"/>
<path d="M9.37793 7.29297V24.7917" stroke="#0D1619" stroke-width="3"/>
<path d="M14.5547 20.6055H5.83789" stroke="#0D1619" stroke-width="3"/>
</svg>
