<svg width="70" height="70" viewBox="0 0 70 70" fill="none" xmlns="http://www.w3.org/2000/svg">
<path d="M14.9998 53.2848C19.3214 48.9632 24.6936 46.3326 30.2943 45.3926M54.9998 53.2849C50.6783 48.9635 45.3064 46.3326 39.706 45.3926" stroke="#0D1619" stroke-width="3"/>
<path d="M22.5 48.1249L24.375 61.2499L22.5 61.875M26.875 46.875L28.75 60.625H35H35.625H41.2499L43.1249 46.875M47.4999 48.1249L45.6249 61.2499L47.4999 61.875" stroke="#0D1619" stroke-width="3"/>
<path d="M27.5 27.5L27.9282 34.1961C28.072 36.445 29.0778 38.5515 30.736 40.0773L32.4096 41.617C33.0269 42.1848 33.8351 42.5 34.6738 42.5H35.326C36.1648 42.5 36.973 42.1848 37.5904 41.617L39.2639 40.0773C40.9222 38.5515 41.928 36.445 42.0718 34.1961L42.5 27.5" stroke="#0D1619" stroke-width="3"/>
<path d="M30 39.375V43.75C30 46.5114 32.2387 48.75 35 48.75C37.7615 48.75 40.0001 46.5114 40.0001 43.75V39.375" stroke="#0D1619" stroke-width="3"/>
<path d="M43.75 27.5C43.75 21.2868 39.8325 16.25 35 16.25C30.1675 16.25 26.25 21.2868 26.25 27.5" stroke="#E44900" stroke-width="3"/>
<path d="M35 16.875V20.625" stroke="#E44900" stroke-width="3"/>
<path d="M23.7498 28.7511C30.9859 25.9371 39.0138 25.9371 46.2498 28.7511" stroke="#E44900" stroke-width="3"/>
<path d="M13.75 41.25C10.8046 41.7855 6.82693 43.4763 6.25 47.5" stroke="#0D1619" stroke-width="3"/>
<path d="M18.75 41.25C20.3488 41.5406 22.2519 42.1718 23.7499 43.3316" stroke="#0D1619" stroke-width="3"/>
<path d="M11.3813 36.2919L11.25 34.9421V33.75C11.25 30.9885 13.4886 28.75 16.25 28.75C19.0115 28.75 21.25 30.9885 21.25 33.75V34.9421L21.1187 36.2919C20.9236 38.2971 19.9782 40.1546 18.4717 41.4923L17.9871 41.9225C17.5683 42.2946 17.0275 42.5 16.4674 42.5H16.0327C15.4724 42.5 14.9318 42.2946 14.5128 41.9225L14.0282 41.4923C12.5218 40.1546 11.5764 38.2971 11.3813 36.2919Z" stroke="#0D1619" stroke-width="3"/>
<path d="M56.25 41.25C59.1954 41.7855 63.1731 43.4763 63.7501 47.5" stroke="#0D1619" stroke-width="3"/>
<path d="M51.2501 41.25C49.6514 41.5406 47.7482 42.1718 46.2502 43.3316" stroke="#0D1619" stroke-width="3"/>
<path d="M58.6187 36.2919L58.7499 34.9421V33.75C58.7499 30.9885 56.5114 28.75 53.75 28.75C50.9885 28.75 48.75 30.9885 48.75 33.75V34.9421L48.8813 36.2919C49.0764 38.2971 50.0218 40.1546 51.5283 41.4923L52.0129 41.9225C52.4317 42.2946 52.9725 42.5 53.5326 42.5H53.9673C54.5276 42.5 55.0682 42.2946 55.4872 41.9225L55.9718 41.4923C57.4781 40.1546 58.4236 38.2971 58.6187 36.2919Z" stroke="#0D1619" stroke-width="3"/>
</svg>
