<svg width="37" height="37" viewBox="0 0 37 37" fill="none" xmlns="http://www.w3.org/2000/svg">
<path d="M30.8186 17.1127C32.6066 17.1127 34.0561 15.6632 34.0561 13.8752C34.0561 12.0872 32.6066 10.6377 30.8186 10.6377C29.0305 10.6377 27.5811 12.0872 27.5811 13.8752C27.5811 15.6632 29.0305 17.1127 30.8186 17.1127Z" stroke="#E44900" stroke-width="1.6"/>
<path d="M23.1101 9.40371C24.8981 9.40371 26.3476 7.95423 26.3476 6.16621C26.3476 4.37819 24.8981 2.92871 23.1101 2.92871C21.322 2.92871 19.8726 4.37819 19.8726 6.16621C19.8726 7.95423 21.322 9.40371 23.1101 9.40371Z" stroke="#E44900" stroke-width="1.6"/>
<path d="M31.325 5.66016L22.604 14.3812" stroke="#E44900" stroke-width="1.6"/>
<path d="M17.1077 28.9245V31.6033C17.1077 33.1455 13.9348 34.3956 10.0209 34.3956C6.10695 34.3956 2.93408 33.1455 2.93408 31.6033V28.6934" stroke="#0D1619" stroke-width="1.6"/>
<path d="M17.1077 24.4245V27.1033C17.1077 28.6455 13.9348 29.8956 10.0209 29.8956C6.10694 29.8956 2.93408 28.6455 2.93408 27.1033V24.1934" stroke="#0D1619" stroke-width="1.6"/>
<path d="M33.2952 28.8034V31.4822C33.2952 33.0244 30.1223 34.2745 26.2084 34.2745C22.2945 34.2745 19.1216 33.0244 19.1216 31.4822V28.5723" stroke="#0D1619" stroke-width="1.6"/>
<path d="M17.1077 19.9226V22.6014C17.1077 24.1435 13.9348 25.3936 10.0209 25.3936C6.10694 25.3936 2.93408 24.1435 2.93408 22.6014V19.6914" stroke="#0D1619" stroke-width="1.6"/>
<path d="M33.2952 24.3014V26.9802C33.2952 28.5223 30.1223 29.7726 26.2084 29.7726C22.2945 29.7726 19.1216 28.5223 19.1216 26.9802V24.0703" stroke="#0D1619" stroke-width="1.6"/>
<path d="M3.84126 27.6113C3.26361 27.983 2.93408 28.412 2.93408 28.8689C2.93408 30.2867 6.10688 31.436 10.0207 31.436C13.9345 31.436 17.1074 30.2867 17.1074 28.8689C17.1074 28.4474 16.8269 28.0495 16.3298 27.6987" stroke="#0D1619" stroke-width="1.6"/>
<path d="M3.84126 23.1094C3.26361 23.481 2.93408 23.91 2.93408 24.3669C2.93408 25.7847 6.10688 26.934 10.0207 26.934C13.9345 26.934 17.1074 25.7847 17.1074 24.3669C17.1074 23.9454 16.8269 23.5476 16.3298 23.1966" stroke="#0D1619" stroke-width="1.6"/>
<path d="M20.0288 27.4902C19.4511 27.8619 19.1216 28.2909 19.1216 28.7478C19.1216 30.1656 22.2944 31.3149 26.2082 31.3149C30.1221 31.3149 33.2949 30.1656 33.2949 28.7478C33.2949 28.3263 33.0144 27.9285 32.5174 27.5776" stroke="#0D1619" stroke-width="1.6"/>
<path d="M17.1125 19.8397C17.1125 20.0806 17.0001 20.3631 16.6867 20.6775C16.3708 20.9944 15.8827 21.3081 15.2306 21.5848C13.9287 22.1372 12.0872 22.4938 10.0209 22.4938C7.95457 22.4938 6.11306 22.1372 4.81113 21.5848C4.15897 21.3081 3.67093 20.9944 3.35504 20.6775C3.04163 20.3631 2.9292 20.0806 2.9292 19.8397C2.9292 19.5989 3.04163 19.3164 3.35504 19.0019C3.67093 18.685 4.15897 18.3713 4.81113 18.0946C6.11306 17.5421 7.95457 17.1855 10.0209 17.1855C12.0872 17.1855 13.9287 17.5421 15.2306 18.0946C15.8827 18.3713 16.3708 18.685 16.6867 19.0019C17.0001 19.3164 17.1125 19.5989 17.1125 19.8397Z" stroke="#0D1619" stroke-width="1.6"/>
<path d="M33.3 24.2185C33.3 24.4594 33.1876 24.7419 32.8742 25.0563C32.5583 25.3732 32.0702 25.6869 31.4181 25.9637C30.1162 26.5161 28.2747 26.8726 26.2084 26.8726C24.1421 26.8726 22.3005 26.5161 20.9986 25.9637C20.3465 25.6869 19.8584 25.3732 19.5425 25.0563C19.2291 24.7419 19.1167 24.4594 19.1167 24.2185C19.1167 23.9777 19.2291 23.6952 19.5425 23.3808C19.8584 23.0639 20.3465 22.7501 20.9986 22.4734C22.3005 21.921 24.1421 21.5645 26.2084 21.5645C28.2747 21.5645 30.1162 21.921 31.4181 22.4734C32.0702 22.7501 32.5583 23.0639 32.8742 23.3808C33.1876 23.6952 33.3 23.9777 33.3 24.2185Z" stroke="#0D1619" stroke-width="1.6"/>
</svg>
