<svg width="44" height="44" viewBox="0 0 44 44" fill="none" xmlns="http://www.w3.org/2000/svg">
<path d="M10.3898 5.51562L11.3388 8.43633L11.5035 8.94305H12.0363H15.1073L12.6227 10.7482L12.1917 11.0613L12.3564 11.568L13.3054 14.4887L10.8208 12.6836L10.3898 12.3705L9.95872 12.6836L7.47426 14.4887L8.42326 11.568L8.5879 11.0613L8.15686 10.7482L5.67236 8.94305H8.74337H9.27617L9.44081 8.43633L10.3898 5.51562Z" stroke="#E44900" stroke-width="1.6"/>
<path d="M17.4165 22H23.8651C25.3662 22 26.5832 23.217 26.5832 24.7181C26.5832 26.2192 25.3662 27.4362 23.8651 27.4362H17.4165" stroke="#0D1619" stroke-width="1.6"/>
<path d="M19.6455 22.001V33.0002" stroke="#0D1619" stroke-width="1.6"/>
<path d="M22.8986 30.3691H17.4194" stroke="#0D1619" stroke-width="1.6"/>
<path d="M35.9336 18.5508H8.06689V35.4174H35.9336V18.5508Z" stroke="#0D1619" stroke-width="1.6"/>
<path d="M8.29047 21.8533L5.47412 22.5644L7.97044 31.5619M35.9024 32.6918L38.4741 32.0425L35.9024 22.6684M8.96734 35.2826L10.0489 39.2201L24.9263 35.4635M34.9139 19.0802L33.8994 15.3867L21.4251 18.4972" stroke="#0D1619" stroke-width="1.6"/>
</svg>
