<svg width="34" height="36" viewBox="0 0 34 36" fill="none" xmlns="http://www.w3.org/2000/svg">
<path d="M20.0748 5.50195H12.9248V14.2496H20.0748V5.50195Z" stroke="#0D1619" stroke-width="1.44"/>
<path d="M12.3752 6.79688H10.0181V9.25879H12.3752" stroke="#0D1619" stroke-width="1.44"/>
<path d="M10.018 6.87405V6.18164H4.71436V9.87449H10.018C10.018 9.6437 10.018 9.18211 10.018 9.18211" stroke="#0D1619" stroke-width="1.44"/>
<path d="M20.625 6.79688H22.9822V9.25879H20.625" stroke="#0D1619" stroke-width="1.44"/>
<path d="M22.9819 6.87405V6.18164H28.2855V9.87449H22.9819C22.9819 9.6437 22.9819 9.18211 22.9819 9.18211" stroke="#0D1619" stroke-width="1.44"/>
<path d="M18.2676 5.56713V3.7207H14.7319V5.56713" stroke="#0D1619" stroke-width="1.44"/>
<path d="M14.1426 14.3262V18.4512H18.8569V14.3262" stroke="#0D1619" stroke-width="1.44"/>
<path d="M17.6785 26.7012V18.4512M15.3213 26.7012V18.4512" stroke="#0D1619" stroke-width="1.44"/>
<path d="M17.6786 26.6621H18.3072V29.1603L16.5 30.1929L14.6929 29.1603V26.6621H15.3215H17.6786Z" stroke="#E44900" stroke-width="1.44"/>
<path d="M20.0356 28.3388L23.5713 25.877" stroke="#E44900" stroke-width="1.44"/>
<path d="M12.9644 28.3388L9.42871 25.877" stroke="#E44900" stroke-width="1.44"/>
<path d="M20.0356 30.1855L22.9821 31.4165" stroke="#E44900" stroke-width="1.44"/>
<path d="M12.9645 30.1855L10.0181 31.4165" stroke="#E44900" stroke-width="1.44"/>
</svg>
