<svg width="34" height="35" viewBox="0 0 34 35" fill="none" xmlns="http://www.w3.org/2000/svg">
<path d="M20.9274 9.28616C20.5366 9.55862 19.9917 9.8724 19.3629 9.8724H12.9516C8.03746 9.8724 4.08545 13.7201 4.08545 18.4279C4.08545 20.9549 5.22059 23.2294 7.03412 24.7989C7.40269 25.1179 7.59499 25.4208 7.71241 25.7576C7.76583 25.9109 7.80096 26.064 7.83128 26.1974L7.83733 26.224C7.86662 26.3534 7.89419 26.4751 7.93399 26.6105C8.18514 27.4655 8.9354 28.087 9.79492 28.087H11.3601C11.7871 28.087 12.1667 27.8538 12.3489 27.5015C12.5165 27.1774 12.8518 26.9834 13.2068 26.9834H17.5472C17.9022 26.9834 18.2375 27.1774 18.405 27.5015C18.5872 27.8538 18.9669 28.087 19.3939 28.087H20.9673C21.8312 28.087 22.535 27.4675 22.6375 26.6751C22.6902 26.2672 22.9618 25.9655 23.2639 25.8062C23.9199 25.4603 24.809 24.7034 25.6683 23.8927C26.2226 23.3697 26.7171 22.8715 27.1157 22.4699C27.3405 22.2433 27.5349 22.0475 27.6922 21.8954C28.0057 21.5923 28.3987 21.3874 28.7762 21.2474C29.5703 20.953 30.0926 20.381 30.0926 19.8075V17.3678C30.0926 16.9183 29.8036 16.5013 29.3442 16.3347L28.661 16.087C28.2398 15.9342 27.8841 15.664 27.6184 15.3294C26.77 14.2612 25.7385 13.252 25.047 12.6304C24.6363 12.2611 24.3653 11.661 24.5597 11.037C24.7828 10.3204 25.1447 9.59416 25.4859 9.00388C25.6147 8.78106 25.6143 8.52366 25.5013 8.32951C25.3815 8.12346 25.1616 8.01539 24.9486 8.04076C22.7943 8.29692 21.5362 8.86163 20.9274 9.28616ZM20.9274 9.28616L20.6128 8.83496" stroke="black" stroke-width="1.44"/>
<path d="M2.35693 14.4941C3.24086 14.4941 4.12479 15.7316 4.12479 17.1459" stroke="black" stroke-width="1.44"/>
<path d="M13.5537 18.0694C14.5518 18.0694 15.3609 17.2603 15.3609 16.2622C15.3609 15.2642 14.5518 14.4551 13.5537 14.4551C12.5557 14.4551 11.7466 15.2642 11.7466 16.2622C11.7466 17.2603 12.5557 18.0694 13.5537 18.0694Z" stroke="#E44900" stroke-width="1.44"/>
<path d="M15.8689 9.78066C15.8964 9.58823 15.9106 9.39147 15.9106 9.19141C15.9106 6.91323 14.0638 5.06641 11.7856 5.06641C9.50748 5.06641 7.66064 6.91323 7.66064 9.19141C7.66064 9.87898 7.82888 10.5273 8.12643 11.0974" stroke="black" stroke-width="1.44"/>
<path d="M18.2681 22.7842C19.2661 22.7842 20.0752 21.9751 20.0752 20.9771C20.0752 19.979 19.2661 19.1699 18.2681 19.1699C17.27 19.1699 16.4609 19.979 16.4609 20.9771C16.4609 21.9751 17.27 22.7842 18.2681 22.7842Z" stroke="#E44900" stroke-width="1.44"/>
<path d="M19.4464 15.084L12.375 22.1554" stroke="#E44900" stroke-width="1.44"/>
</svg>
