<svg width="34" height="35" viewBox="0 0 34 35" fill="none" xmlns="http://www.w3.org/2000/svg">
<path d="M7.07129 25.1191C9.10863 23.0817 11.6412 21.8416 14.2816 21.3984M25.9285 25.1191C23.8912 23.0818 21.3587 21.8416 18.7185 21.3984" stroke="#0D1619" stroke-width="1.44"/>
<path d="M10.6069 22.6869L11.4909 28.8744L10.6069 29.1691M12.6694 22.0977L13.5534 28.5798H16.4998H16.7944H19.4462L20.3301 22.0977M22.3926 22.6869L21.5087 28.8744L22.3926 29.1691" stroke="#0D1619" stroke-width="1.44"/>
<path d="M12.9644 12.9629L13.1662 16.1196C13.234 17.1798 13.7082 18.1729 14.4899 18.8922L15.2789 19.618C15.5699 19.8857 15.9509 20.0343 16.3463 20.0343H16.6538C17.0492 20.0343 17.4302 19.8857 17.7212 19.618L18.5102 18.8922C19.292 18.1729 19.7661 17.1798 19.8339 16.1196L20.0358 12.9629" stroke="#0D1619" stroke-width="1.44"/>
<path d="M14.1431 18.5625V20.625C14.1431 21.9268 15.1984 22.9822 16.5002 22.9822C17.8021 22.9822 18.8574 21.9268 18.8574 20.625V18.5625" stroke="#0D1619" stroke-width="1.44"/>
<path d="M20.625 12.9637C20.625 10.0346 18.7782 7.66016 16.5 7.66016C14.2218 7.66016 12.375 10.0346 12.375 12.9637" stroke="#E44900" stroke-width="1.44"/>
<path d="M16.5 7.95508V9.72292" stroke="#E44900" stroke-width="1.44"/>
<path d="M11.1963 13.5535C14.6076 12.2269 18.3922 12.2269 21.8035 13.5535" stroke="#E44900" stroke-width="1.44"/>
<path d="M6.48201 19.4473C5.09346 19.6997 3.21827 20.4968 2.94629 22.3937" stroke="#0D1619" stroke-width="1.44"/>
<path d="M8.83936 19.4473C9.59306 19.5843 10.4903 19.8818 11.1964 20.4286" stroke="#0D1619" stroke-width="1.44"/>
<path d="M5.36561 17.1102L5.30371 16.4738V15.9119C5.30371 14.61 6.35904 13.5547 7.66083 13.5547C8.96268 13.5547 10.018 14.61 10.018 15.9119V16.4738L9.95612 17.1102C9.86413 18.0555 9.41843 18.9311 8.70824 19.5618L8.47978 19.7646C8.28233 19.94 8.02741 20.0369 7.76334 20.0369H7.55839C7.29426 20.0369 7.0394 19.94 6.8419 19.7646L6.61345 19.5618C5.90328 18.9311 5.45758 18.0555 5.36561 17.1102Z" stroke="#0D1619" stroke-width="1.44"/>
<path d="M26.5181 19.4473C27.9066 19.6997 29.7818 20.4968 30.0538 22.3937" stroke="#0D1619" stroke-width="1.44"/>
<path d="M24.1608 19.4473C23.4071 19.5843 22.5099 19.8818 21.8037 20.4286" stroke="#0D1619" stroke-width="1.44"/>
<path d="M27.6343 17.1102L27.6962 16.4738V15.9119C27.6962 14.61 26.6409 13.5547 25.3391 13.5547C24.0372 13.5547 22.9819 14.61 22.9819 15.9119V16.4738L23.0438 17.1102C23.1358 18.0555 23.5815 18.9311 24.2917 19.5618L24.5201 19.7646C24.7176 19.94 24.9725 20.0369 25.2366 20.0369H25.4415C25.7057 20.0369 25.9605 19.94 26.158 19.7646L26.3865 19.5618C27.0966 18.9311 27.5423 18.0555 27.6343 17.1102Z" stroke="#0D1619" stroke-width="1.44"/>
</svg>
