<svg width="34" height="35" viewBox="0 0 34 35" fill="none" xmlns="http://www.w3.org/2000/svg">
<path d="M16.5 29.1615C23.0092 29.1615 28.2858 23.8849 28.2858 17.3759C28.2858 11.8842 24.5298 7.26976 19.4465 5.96142M16.5 29.1615L18.268 27.3937M16.5 29.1615L18.268 30.9294M16.5 5.59012C9.991 5.59012 4.71436 10.8668 4.71436 17.3759C4.71436 22.8675 8.47039 27.4819 13.5536 28.7902M16.5 5.59012L14.7322 3.82227M16.5 5.59012L14.7322 7.35798" stroke="black" stroke-width="1.44"/>
<path d="M16.5001 18.592C17.1727 18.592 17.7179 18.0467 17.7179 17.3741C17.7179 16.7015 17.1727 16.1562 16.5001 16.1562C15.8275 16.1562 15.2822 16.7015 15.2822 17.3741C15.2822 18.0467 15.8275 18.592 16.5001 18.592Z" stroke="black" stroke-width="1.44"/>
<path d="M16.5 10.3047V15.9029" stroke="black" stroke-width="1.44"/>
<path d="M16.5002 7.35742V9.12527M26.5181 17.3753H24.7502M23.5839 10.2916L22.3339 11.5416M23.5839 24.459L22.3339 23.2089M10.6666 11.5416L9.4165 10.2916M20.2529 8.08687L19.5907 9.726M25.7886 21.1281L24.1495 20.4658M25.7217 13.461L24.0944 14.1517M20.4144 26.5968L19.7237 24.9694M13.2767 9.78107L12.5859 8.15376" stroke="#E44900" stroke-width="1.44"/>
<path d="M21.8037 21.5005L17.0894 17.9648" stroke="black" stroke-width="1.44"/>
</svg>
