<svg width="20" height="21" viewBox="0 0 20 21" fill="none" xmlns="http://www.w3.org/2000/svg">
<path d="M0 0.9C0 0.661305 0.0903121 0.432387 0.251069 0.263604C0.411825 0.094821 0.629858 0 0.857203 0H1.49496C2.58075 0 3.23223 0.7668 3.60368 1.4796C3.8517 1.9548 4.03114 2.5056 4.17172 3.0048L4.28601 3H18.5704C19.5191 3 20.2048 3.9528 19.9443 4.9116L17.855 12.6024C17.6676 13.2922 17.2713 13.8992 16.7261 14.3314C16.1808 14.7636 15.5162 14.9974 14.833 14.9976H8.03485C7.34622 14.9976 6.67664 14.7602 6.12903 14.3218C5.58141 13.8835 5.18608 13.2684 5.00378 12.5712L4.13515 9.2448L2.69504 4.1472L2.6939 4.1376C2.5156 3.4572 2.34874 2.82 2.09958 2.3448C1.8607 1.8828 1.66869 1.8 1.4961 1.8H0.857203C0.629858 1.8 0.411825 1.70518 0.251069 1.5364C0.0903121 1.36761 0 1.13869 0 0.9ZM5.79812 8.808L6.65647 12.0948C6.82791 12.7452 7.39137 13.1976 8.03485 13.1976H14.833C15.1436 13.1976 15.4457 13.0914 15.6936 12.895C15.9414 12.6986 16.1216 12.4227 16.2068 12.1092L18.1921 4.8H4.6689L5.78212 8.7444L5.79812 8.808ZM9.71496 18.6C9.71496 19.2365 9.47413 19.847 9.04545 20.2971C8.61676 20.7471 8.03534 21 7.42909 21C6.82284 21 6.24142 20.7471 5.81273 20.2971C5.38405 19.847 5.14322 19.2365 5.14322 18.6C5.14322 17.9635 5.38405 17.353 5.81273 16.9029C6.24142 16.4529 6.82284 16.2 7.42909 16.2C8.03534 16.2 8.61676 16.4529 9.04545 16.9029C9.47413 17.353 9.71496 17.9635 9.71496 18.6ZM8.00056 18.6C8.00056 18.4409 7.94035 18.2883 7.83318 18.1757C7.72601 18.0632 7.58065 18 7.42909 18C7.27753 18 7.13217 18.0632 7.025 18.1757C6.91783 18.2883 6.85762 18.4409 6.85762 18.6C6.85762 18.7591 6.91783 18.9117 7.025 19.0243C7.13217 19.1368 7.27753 19.2 7.42909 19.2C7.58065 19.2 7.72601 19.1368 7.83318 19.0243C7.94035 18.9117 8.00056 18.7591 8.00056 18.6ZM17.7155 18.6C17.7155 19.2365 17.4747 19.847 17.046 20.2971C16.6173 20.7471 16.0359 21 15.4296 21C14.8234 21 14.242 20.7471 13.8133 20.2971C13.3846 19.847 13.1438 19.2365 13.1438 18.6C13.1438 17.9635 13.3846 17.353 13.8133 16.9029C14.242 16.4529 14.8234 16.2 15.4296 16.2C16.0359 16.2 16.6173 16.4529 17.046 16.9029C17.4747 17.353 17.7155 17.9635 17.7155 18.6ZM16.0011 18.6C16.0011 18.4409 15.9409 18.2883 15.8337 18.1757C15.7266 18.0632 15.5812 18 15.4296 18C15.2781 18 15.1327 18.0632 15.0256 18.1757C14.9184 18.2883 14.8582 18.4409 14.8582 18.6C14.8582 18.7591 14.9184 18.9117 15.0256 19.0243C15.1327 19.1368 15.2781 19.2 15.4296 19.2C15.5812 19.2 15.7266 19.1368 15.8337 19.0243C15.9409 18.9117 16.0011 18.7591 16.0011 18.6Z" fill="currentColor"/>
</svg>
