<svg width="15" height="15" viewBox="0 0 15 15" fill="none" xmlns="http://www.w3.org/2000/svg">
<path fill-rule="evenodd" clip-rule="evenodd" d="M7.49885 4.21778C6.6687 4.21778 5.99573 4.89074 5.99573 5.72089C5.99573 6.55104 6.6687 7.22401 7.49885 7.22401C8.329 7.22401 9.00197 6.55104 9.00197 5.72089C9.00197 4.89074 8.329 4.21778 7.49885 4.21778ZM5.52795 5.72089C5.52795 4.6324 6.41035 3.75 7.49885 3.75C8.58734 3.75 9.46974 4.6324 9.46974 5.72089C9.46974 6.80939 8.58734 7.69179 7.49885 7.69179C6.41035 7.69179 5.52795 6.80939 5.52795 5.72089Z" fill="#262121" stroke="#262121" stroke-width="0.2"/>
<path fill-rule="evenodd" clip-rule="evenodd" d="M4.84835 8.49483C5.55161 7.79157 6.50544 7.39648 7.5 7.39648C8.49456 7.39648 9.44839 7.79157 10.1517 8.49483C10.8549 9.1981 11.25 10.1519 11.25 11.1465V11.3804H3.75V11.1465C3.75 10.1519 4.14509 9.1981 4.84835 8.49483ZM7.5 7.86426C6.6295 7.86426 5.79465 8.21006 5.17912 8.8256C4.61894 9.38577 4.28216 10.1276 4.22611 10.9126H10.7739C10.7178 10.1276 10.3811 9.38577 9.82088 8.8256C9.20535 8.21006 8.3705 7.86426 7.5 7.86426Z" fill="#262121" stroke="#262121" stroke-width="0.2"/>
<circle cx="7.5" cy="7.5" r="7.25" stroke="#262121" stroke-width="0.5"/>
</svg>
