<svg width="20" height="20" viewBox="0 0 20 20" fill="none" xmlns="http://www.w3.org/2000/svg">
<path d="M10.5 1.5C6.08854 1.5 2.5 5.08854 2.5 9.5C2.5 13.9115 6.08854 17.5 10.5 17.5C14.9115 17.5 18.5 13.9115 18.5 9.5C18.5 5.08854 14.9115 1.5 10.5 1.5ZM10.5 2.83333C14.1901 2.83333 17.1667 5.80989 17.1667 9.5C17.1667 13.1901 14.1901 16.1667 10.5 16.1667C6.80989 16.1667 3.83333 13.1901 3.83333 9.5C3.83333 5.80989 6.80989 2.83333 10.5 2.83333ZM9.83333 4.16667V10.1667H14.5V8.83333H11.1667V4.16667H9.83333Z" fill="#262121"/>
</svg>
