<svg width="15" height="12" viewBox="0 0 15 12" fill="none" xmlns="http://www.w3.org/2000/svg">
<path fill-rule="evenodd" clip-rule="evenodd" d="M12.3652 0.666992C13.383 0.666992 14.2081 1.56243 14.2081 2.66699V9.33366C14.2081 10.4383 13.383 11.3337 12.3652 11.3337H2.53628C1.51847 11.3337 0.693359 10.4383 0.693359 9.33366V2.66699C0.693359 1.56243 1.51847 0.666992 2.53628 0.666992H12.3652ZM11.9062 2.00033H2.99528L7.07011 5.49146C7.29328 5.68273 7.60818 5.68273 7.83142 5.49146L11.9062 2.00033ZM1.92197 2.77953V9.33366C1.92197 9.70186 2.19701 10.0003 2.53628 10.0003H12.3652C12.7045 10.0003 12.9795 9.70186 12.9795 9.33366V2.77954L8.59266 6.53799C7.92313 7.11166 6.97833 7.11166 6.3088 6.53799L1.92197 2.77953Z" fill="#0F0F0F"/>
</svg>
