<svg width="16" height="16" viewBox="0 0 16 16" fill="none" xmlns="http://www.w3.org/2000/svg">
<path d="M16 13.8182V15.2727C16 15.4697 15.9435 15.6402 15.8304 15.7841C15.7173 15.928 15.5833 16 15.4286 16H0.571429C0.416667 16 0.282738 15.928 0.169643 15.7841C0.0565476 15.6402 0 15.4697 0 15.2727V13.8182C0 13.6212 0.0565476 13.4508 0.169643 13.3068C0.282738 13.1629 0.416667 13.0909 0.571429 13.0909H15.4286C15.5833 13.0909 15.7173 13.1629 15.8304 13.3068C15.9435 13.4508 16 13.6212 16 13.8182ZM16 9.45455V10.9091C16 11.1061 15.9435 11.2765 15.8304 11.4205C15.7173 11.5644 15.5833 11.6364 15.4286 11.6364H0.571429C0.416667 11.6364 0.282738 11.5644 0.169643 11.4205C0.0565476 11.2765 0 11.1061 0 10.9091V9.45455C0 9.25758 0.0565476 9.08712 0.169643 8.94318C0.282738 8.79924 0.416667 8.72727 0.571429 8.72727H15.4286C15.5833 8.72727 15.7173 8.79924 15.8304 8.94318C15.9435 9.08712 16 9.25758 16 9.45455ZM16 5.09091V6.54545C16 6.74242 15.9435 6.91288 15.8304 7.05682C15.7173 7.20076 15.5833 7.27273 15.4286 7.27273H0.571429C0.416667 7.27273 0.282738 7.20076 0.169643 7.05682C0.0565476 6.91288 0 6.74242 0 6.54545V5.09091C0 4.89394 0.0565476 4.72348 0.169643 4.57955C0.282738 4.43561 0.416667 4.36364 0.571429 4.36364H15.4286C15.5833 4.36364 15.7173 4.43561 15.8304 4.57955C15.9435 4.72348 16 4.89394 16 5.09091ZM16 0.727272V2.18182C16 2.37879 15.9435 2.54924 15.8304 2.69318C15.7173 2.83712 15.5833 2.90909 15.4286 2.90909H0.571429C0.416667 2.90909 0.282738 2.83712 0.169643 2.69318C0.0565476 2.54924 0 2.37879 0 2.18182V0.727272C0 0.530303 0.0565476 0.359848 0.169643 0.215909C0.282738 0.0719692 0.416667 -4.76837e-07 0.571429 -4.76837e-07H15.4286C15.5833 -4.76837e-07 15.7173 0.0719692 15.8304 0.215909C15.9435 0.359848 16 0.530303 16 0.727272Z" fill="#E6E6E6"/>
</svg>
