<svg width="18" height="18" viewBox="0 0 18 18" fill="none" xmlns="http://www.w3.org/2000/svg">
<path d="M6.69522 1.51855L7.38478 2.75417C8.00709 3.86924 7.7573 5.33203 6.77714 6.31217C6.77714 6.31217 5.5884 7.50111 7.7438 9.65661C9.89855 11.8114 11.0882 10.6233 11.0882 10.6233C12.0684 9.64311 13.5311 9.39332 14.6462 10.0156L15.8818 10.7052C17.5657 11.6449 17.7644 14.0062 16.2845 15.4862C15.3952 16.3756 14.3057 17.0676 13.1013 17.1131C11.074 17.1901 7.63097 16.677 4.1772 13.2232C0.723476 9.76945 0.210374 6.32643 0.287235 4.29904C0.332891 3.0947 1.02488 2.00524 1.9142 1.11593C3.39421 -0.364086 5.75552 -0.165228 6.69522 1.51855Z" fill="#E44900"/>
</svg>
