<svg width="16" height="16" viewBox="0 0 16 16" fill="none" xmlns="http://www.w3.org/2000/svg">
<path fill-rule="evenodd" clip-rule="evenodd" d="M6.8731 1.50001H9.12736C9.27163 1.49992 9.3973 1.49984 9.51596 1.51879C9.98483 1.59366 10.3906 1.8861 10.6099 2.30723C10.6654 2.41382 10.705 2.53307 10.7506 2.66996L10.825 2.89323C10.8376 2.93102 10.8412 2.94172 10.8442 2.95015C10.961 3.27289 11.2637 3.49106 11.6068 3.49976C11.6158 3.49999 11.6268 3.50003 11.6669 3.50003H13.6669C13.943 3.50003 14.1669 3.72388 14.1669 4.00003C14.1669 4.27617 13.943 4.50003 13.6669 4.50003H2.3335C2.05736 4.50003 1.8335 4.27617 1.8335 4.00003C1.8335 3.72388 2.05736 3.50003 2.3335 3.50003H4.33355C4.37358 3.50003 4.38463 3.49999 4.39365 3.49976C4.73675 3.49106 5.03944 3.27291 5.15618 2.95016C5.15925 2.94167 5.16278 2.93121 5.17544 2.89323L5.24984 2.66997C5.29537 2.53309 5.33505 2.41382 5.39056 2.30723C5.60985 1.8861 6.01558 1.59366 6.48445 1.51879C6.60313 1.49984 6.72883 1.49992 6.8731 1.50001ZM6.0056 3.50003C6.03994 3.43268 6.07037 3.36269 6.09655 3.29032C6.1045 3.26834 6.1123 3.24495 6.12231 3.21489L6.18884 3.01528C6.24962 2.83294 6.26362 2.79575 6.2775 2.76909C6.3506 2.62871 6.48585 2.53124 6.64214 2.50628C6.67183 2.50154 6.7115 2.50003 6.9037 2.50003H9.0967C9.2889 2.50003 9.32863 2.50154 9.3583 2.50628C9.51456 2.53124 9.64983 2.62871 9.72296 2.76909C9.73683 2.79575 9.75083 2.83293 9.81156 3.01528L9.8781 3.21477L9.9039 3.29033C9.9301 3.3627 9.9605 3.43268 9.99483 3.50003H6.0056Z" fill="#262121"/>
<path d="M3.94325 5.63277C3.92488 5.35724 3.68663 5.14878 3.4111 5.16714C3.13557 5.18551 2.9271 5.42376 2.94546 5.69929L3.25443 10.3338C3.31143 11.1889 3.35747 11.8797 3.46545 12.4217C3.57772 12.9853 3.76866 13.456 4.16306 13.825C4.55746 14.1939 5.03982 14.3532 5.60959 14.4277C6.1576 14.4994 6.84986 14.4994 7.70692 14.4993H8.29285C9.14992 14.4994 9.84219 14.4994 10.3903 14.4277C10.96 14.3532 11.4424 14.1939 11.8368 13.825C12.2312 13.456 12.4221 12.9853 12.5344 12.4217C12.6424 11.8797 12.6884 11.1889 12.7454 10.3338L13.0544 5.69929C13.0727 5.42376 12.8643 5.18551 12.5887 5.16714C12.3132 5.14878 12.0749 5.35724 12.0566 5.63277L11.7499 10.2322C11.6901 11.1307 11.6474 11.7559 11.5537 12.2264C11.4627 12.6827 11.3359 12.9242 11.1536 13.0947C10.9713 13.2653 10.7219 13.3758 10.2605 13.4361C9.78492 13.4983 9.15825 13.4993 8.25772 13.4993H7.74212C6.84159 13.4993 6.21489 13.4983 5.73929 13.4361C5.27796 13.3758 5.02852 13.2653 4.84624 13.0947C4.66397 12.9242 4.53708 12.6827 4.44618 12.2264C4.35247 11.7559 4.30978 11.1307 4.24988 10.2322L3.94325 5.63277Z" fill="#262121"/>
<path d="M6.28378 6.83651C6.55855 6.80898 6.80361 7.00951 6.83107 7.28425L7.16441 10.6176C7.19187 10.8924 6.99141 11.1374 6.71661 11.1648C6.44185 11.1923 6.19683 10.9918 6.16935 10.7171L5.83601 7.38378C5.80854 7.10898 6.00901 6.86398 6.28378 6.83651Z" fill="#262121"/>
<path d="M9.71661 6.83651C9.99141 6.86398 10.1919 7.10898 10.1644 7.38378L9.83108 10.7171C9.80361 10.9918 9.55855 11.1923 9.28381 11.1648C9.00901 11.1374 8.80855 10.8924 8.83601 10.6176L9.16935 7.28425C9.19681 7.00951 9.44188 6.80898 9.71661 6.83651Z" fill="#262121"/>
</svg>
