<svg width="21" height="22" viewBox="0 0 21 22" fill="none" xmlns="http://www.w3.org/2000/svg">
<path fill-rule="evenodd" clip-rule="evenodd" d="M10.4999 1.30977C8.17553 1.30977 6.29122 3.19408 6.29122 5.5185C6.29122 7.84292 8.17553 9.72723 10.4999 9.72723C12.8244 9.72723 14.7087 7.84292 14.7087 5.5185C14.7087 3.19408 12.8244 1.30977 10.4999 1.30977ZM4.98145 5.5185C4.98145 2.47072 7.45216 0 10.4999 0C13.5477 0 16.0185 2.47072 16.0185 5.5185C16.0185 8.56629 13.5477 11.037 10.4999 11.037C7.45216 11.037 4.98145 8.56629 4.98145 5.5185Z" fill="#262121"/>
<path fill-rule="evenodd" clip-rule="evenodd" d="M3.07538 13.2851C5.04451 11.316 7.71523 10.2097 10.5 10.2097C13.2848 10.2097 15.9555 11.316 17.9246 13.2851C19.8938 15.2542 21 17.9249 21 20.7097V21.3646H0V20.7097C0 17.9249 1.10625 15.2542 3.07538 13.2851ZM10.5 11.5195C8.0626 11.5195 5.72503 12.4877 4.00153 14.2112C2.43304 15.7797 1.49006 17.8568 1.33312 20.0548H19.6669C19.5099 17.8568 18.567 15.7797 16.9985 14.2112C15.275 12.4877 12.9374 11.5195 10.5 11.5195Z" fill="#262121"/>
</svg>
