<svg width="25" height="24" viewBox="0 0 25 24" fill="none" xmlns="http://www.w3.org/2000/svg">
<g clip-path="url(#clip0_307_1618)">
<path fill-rule="evenodd" clip-rule="evenodd" d="M12.6928 0C6.07742 0 0.696289 5.38264 0.696289 11.9999C0.696289 14.6242 1.54261 17.058 2.98129 19.0335L1.48608 23.4919L6.09851 22.0178C7.99559 23.2735 10.2595 24 12.6998 24C19.3152 24 24.6963 18.6172 24.6963 12.0001C24.6963 5.38285 19.3152 0.000198364 12.6998 0.000198364L12.6928 0ZM9.34271 6.09541C9.11003 5.53814 8.93368 5.51704 8.58118 5.5027C8.46115 5.49573 8.32739 5.48877 8.17911 5.48877C7.72051 5.48877 7.24102 5.62276 6.95181 5.91902C6.59931 6.27879 5.7247 7.11819 5.7247 8.8396C5.7247 10.561 6.98007 12.2259 7.14926 12.4588C7.32561 12.6914 9.59668 16.2752 13.1229 17.7357C15.8805 18.8786 16.6987 18.7726 17.3263 18.6387C18.2431 18.4412 19.3928 17.7636 19.682 16.9455C19.9712 16.127 19.9712 15.4286 19.8864 15.2805C19.8018 15.1323 19.5689 15.0479 19.2164 14.8713C18.8639 14.6949 17.15 13.8483 16.8255 13.7354C16.5081 13.6156 16.2049 13.658 15.9653 13.9967C15.6267 14.4693 15.2953 14.9492 15.0272 15.2383C14.8156 15.464 14.4699 15.4923 14.1808 15.3722C13.7929 15.2102 12.7069 14.8289 11.3668 13.6367C10.33 12.7127 9.62477 11.5629 9.42035 11.2172C9.21573 10.8646 9.39923 10.6598 9.56125 10.4694C9.7376 10.2506 9.90681 10.0955 10.0832 9.89084C10.2595 9.68636 10.3582 9.58045 10.4711 9.34053C10.5911 9.10778 10.5063 8.86787 10.4217 8.69147C10.3371 8.51507 9.63192 6.79365 9.34271 6.09541Z" fill="#67C15E"/>
</g>
<defs>
<clipPath id="clip0_307_1618">
<rect width="24" height="24" fill="white" transform="translate(0.696289)"/>
</clipPath>
</defs>
</svg>
