<svg width="20" height="20" viewBox="0 0 20 20" fill="none" xmlns="http://www.w3.org/2000/svg">
<path fill-rule="evenodd" clip-rule="evenodd" d="M8 2C4.68629 2 2 4.68629 2 8C2 11.3137 4.68629 14 8 14C9.65462 14 11.1528 13.3302 12.2382 12.247C12.2411 12.2441 12.244 12.2412 12.2469 12.2382C12.2492 12.236 12.2514 12.2338 12.2537 12.2316C13.333 11.1467 14 9.65123 14 8C14 4.68629 11.3137 2 8 2ZM15.5686 14.1491C14.8567 13.4362 14.8137 12.3136 15.2427 11.402C15.7285 10.3696 16 9.21653 16 8C16 3.58173 12.4183 0 8 0C3.58173 0 0 3.58173 0 8C0 12.4183 3.58173 16 8 16C9.21846 16 10.3733 15.7276 11.4069 15.2404C12.32 14.81 13.4451 14.8531 14.1584 15.5673L18.2924 19.7066C18.6827 20.0974 19.3159 20.0978 19.7066 19.7076C20.0974 19.3173 20.0978 18.6841 19.7076 18.2933L15.5686 14.1491Z" fill="#686868"/>
</svg>
