<svg width="78" height="76" viewBox="0 0 78 76" fill="none" xmlns="http://www.w3.org/2000/svg">
<path d="M14.3219 52.2493V35.6243M14.3219 35.6243V22.166H58.0975V35.6243M14.3219 35.6243H58.0975M43.7709 52.2493L58.0975 37.2077V35.6243" stroke="#E44900" stroke-width="1.63233"/>
<path d="M17.5062 26.916H24.6695" stroke="#E44900" stroke-width="1.63233"/>
<path d="M7.15869 61.75L13.526 52.25H44.5669L50.9342 61.75M46.1587 53.8333H71.6281" stroke="#0D1619" stroke-width="1.63233"/>
<path d="M67.6489 53.834V63.334H63.6693H71.6285" stroke="#0D1619" stroke-width="1.63233"/>
<path d="M20.6889 69.9836C24.3813 69.9836 27.3746 67.0063 27.3746 63.3336C27.3746 59.6609 24.3813 56.6836 20.6889 56.6836C16.9965 56.6836 14.0032 59.6609 14.0032 63.3336C14.0032 67.0063 16.9965 69.9836 20.6889 69.9836Z" stroke="#0D1619" stroke-width="1.63233"/>
<path d="M38.1995 69.9836C41.8919 69.9836 44.8852 67.0063 44.8852 63.3336C44.8852 59.6609 41.8919 56.6836 38.1995 56.6836C34.5071 56.6836 31.5138 59.6609 31.5138 63.3336C31.5138 67.0063 34.5071 69.9836 38.1995 69.9836Z" stroke="#0D1619" stroke-width="1.63233"/>
<path d="M58.6654 14.9304L62.3163 17.5385L68.2164 10.5547" stroke="#E44900" stroke-width="1.63233"/>
<path d="M71.1471 14.8917C71.1471 19.522 67.3733 23.2756 62.7181 23.2756M54.2892 14.8917C54.2892 10.2614 58.063 6.50781 62.7181 6.50781" stroke="#E44900" stroke-width="1.63233"/>
</svg>
