<svg width="78" height="77" viewBox="0 0 78 77" fill="none" xmlns="http://www.w3.org/2000/svg">
<path d="M27.2337 53.2577C28.1351 52.3563 28.1351 50.8948 27.2337 49.9934C26.3323 49.0921 24.8708 49.0921 23.9694 49.9934L21.7351 52.2278C20.8337 53.1292 20.8337 54.5907 21.7351 55.4921C22.6365 56.3934 24.0979 56.3934 24.9993 55.492L27.2337 53.2577Z" stroke="#E44900" stroke-width="1.63233"/>
<path d="M31.8107 53.4121L31.8106 53.4121C30.7514 52.3528 29.034 52.3528 27.9748 53.4121L25.6947 55.6921C24.6354 56.7514 24.6354 58.4688 25.6947 59.528L25.6947 59.528C26.754 60.5873 28.4713 60.5873 29.5306 59.528L31.8107 57.248C32.8699 56.1887 32.8699 54.4713 31.8107 53.4121Z" stroke="#E44900" stroke-width="1.63233"/>
<path d="M35.808 60.6639C36.7094 59.7625 36.7094 58.3011 35.808 57.3997C34.9066 56.4983 33.4452 56.4983 32.5438 57.3997L30.3094 59.6341C29.408 60.5355 29.408 61.9969 30.3094 62.8983C31.2108 63.7997 32.6723 63.7997 33.5737 62.8983L35.808 60.6639Z" stroke="#E44900" stroke-width="1.63233"/>
<path d="M32.3735 27.4688C31.1183 27.8732 27.1876 28.5611 21.5051 28.0756M15.434 46.9584C16.7087 46.999 19.7074 47.8449 21.5051 50.905" stroke="#0D1619" stroke-width="1.63233"/>
<path d="M59.0514 49.8864L63.8858 47.079M59.0514 27.9534L55.8332 28.1478C53.9652 28.2605 52.0905 28.1145 50.2626 27.7135L46.0961 26.7998L38.9177 25.955C36.2482 25.6408 33.5652 26.4194 31.4784 28.1137L29.3005 29.8824C28.2091 30.7686 27.3511 31.9083 26.8013 33.2023L25.3183 36.6929C24.9536 37.5511 25.1041 38.5417 25.7072 39.2529C26.5017 40.1897 27.8642 40.3992 28.9035 39.7446L35.0109 35.8968C36.5666 34.9167 38.4215 34.6665 40.1223 35.1181" stroke="#E44900" stroke-width="1.63233"/>
<path d="M46.6641 48.446L53.6315 55.3054C54.3081 55.9819 55.1745 56.3525 56.0592 56.4172M56.0592 56.4172C56.1105 57.5708 55.6957 58.7414 54.8147 59.6223C53.7751 60.6619 52.3321 61.0524 50.9894 60.7936M56.0592 56.4172C57.131 56.4956 58.2297 56.1251 59.0493 55.3054C60.5454 53.8094 60.5454 51.3838 59.0493 49.8876L56.0592 47.3838L42.5477 36.3594M42.4946 53.6402L48.7855 59.6223C49.4108 60.2476 50.182 60.6379 50.9894 60.7936M50.9894 60.7936C50.9259 61.6801 50.5551 62.5488 49.8772 63.2267C48.7675 64.3364 47.1462 64.6229 45.7725 64.0863M41.1165 59.6223L44.4595 63.2267C44.8459 63.6131 45.2941 63.8996 45.7725 64.0863M45.7725 64.0863C45.6255 64.5102 45.3828 64.9082 45.0444 65.2466C43.8483 66.4427 41.9091 66.4427 40.7131 65.2466L38.944 63.4776" stroke="#0D1619" stroke-width="1.63233"/>
<path d="M15.0246 49.1739L21.6968 26.1596L13.4219 23.832L6.802 46.6397L15.0246 49.1739Z" stroke="#0D1619" stroke-width="1.63233"/>
<path d="M64.9977 49.1739L58.3256 26.1596L66.6004 23.832L73.2204 46.6397L64.9977 49.1739Z" stroke="#E44900" stroke-width="1.63233"/>
<path d="M24.5154 14.7652L32.0086 22.1494M34.3981 10.3125L36.6788 18.3487M45.1496 10.3125L43.0861 18.3487M54.5976 15.525L48.9504 21.3894" stroke="#0D1619" stroke-width="1.63233"/>
<path d="M38.7314 60.884L38.7314 60.884C39.3523 61.5049 39.3523 62.5115 38.7314 63.1324L37.0775 64.7864C36.4566 65.4073 35.4499 65.4073 34.829 64.7864L34.829 64.7864C34.2081 64.1655 34.2081 63.1588 34.829 62.5379L36.483 60.884C37.1038 60.2631 38.1105 60.2631 38.7314 60.884Z" stroke="#E44900" stroke-width="1.63233"/>
</svg>
