<svg width="392" height="286" viewBox="0 0 392 286" fill="none" xmlns="http://www.w3.org/2000/svg">
<g clip-path="url(#clip0_88_1793)">
<path fill-rule="evenodd" clip-rule="evenodd" d="M50.3252 214.5C55.8044 214.5 59.8831 215.95 62.5613 218.849C65.2394 221.749 66.5785 225.999 66.5785 231.601V240.631C66.5785 246.233 65.2394 250.484 62.5613 253.383C59.8831 256.282 55.8044 257.732 50.3252 257.732H45.2022V283.789H34.293V214.5H50.3252ZM45.1654 224.378V247.855H50.3252C52.0451 247.855 53.3596 247.388 54.2687 246.454C55.2024 245.545 55.6693 243.825 55.6693 241.294V230.901C55.6693 228.395 55.2024 226.687 54.2687 225.778C53.3596 224.844 52.0451 224.378 50.3252 224.378H45.1654Z" fill="#0D1619"/>
<path d="M83.7899 243.69H98.7533V253.604H83.7899V273.875H102.586V283.789H72.9175V214.5H102.586V224.378H83.7899V243.69Z" fill="#0D1619"/>
<path d="M133.582 263.703L141.027 214.5H156.175V283.789H145.855V234.071L138.337 283.789H128.054L119.909 234.771V283.789H110.437V214.5H125.585L133.582 263.703Z" fill="#0D1619"/>
<path fill-rule="evenodd" clip-rule="evenodd" d="M164.467 231.122C164.467 225.52 165.892 221.208 168.743 218.185C171.568 215.188 175.659 213.689 181.015 213.689C186.347 213.689 190.438 215.188 193.288 218.185C196.114 221.208 197.527 225.52 197.527 231.122V267.167C197.527 272.769 196.114 277.069 193.288 280.066C190.438 283.064 186.347 284.563 181.015 284.563C175.659 284.563 171.568 283.064 168.743 280.066C165.892 277.069 164.467 272.769 164.467 267.167V231.122ZM175.377 267.83C175.377 270.336 175.88 272.105 176.888 273.137C177.92 274.145 179.296 274.648 181.015 274.648C182.735 274.648 184.099 274.145 185.106 273.137C186.138 272.105 186.654 270.336 186.654 267.83V230.422C186.654 227.915 186.138 226.146 185.106 225.114C184.099 224.082 182.735 223.566 181.015 223.566C179.296 223.566 177.92 224.082 176.888 225.114C175.88 226.146 175.377 227.915 175.377 230.422V267.83Z" fill="#0D1619"/>
<path d="M216.728 283.789H205.856V214.5H216.728V244.169H229.112V214.5H240.205V283.789H229.112V254.083H216.728V283.789Z" fill="#0D1619"/>
<path d="M246.545 214.5H280.194V224.378H268.806V283.789H257.933V224.378H246.545V214.5Z" fill="#0D1619"/>
<path fill-rule="evenodd" clip-rule="evenodd" d="M301.275 283.789C301.816 282.462 302.148 281.16 302.27 279.882C302.393 278.58 302.455 277.069 302.455 275.349V264.661C302.455 261.049 302.971 257.965 304.003 255.41C305.035 252.879 306.939 251.049 309.715 249.919C304.949 247.683 302.565 243.002 302.565 235.877V230.422C302.565 225.066 303.843 221.073 306.398 218.444C308.929 215.815 313.032 214.5 318.708 214.5H335.146V283.789H324.236V255.558H320.477C317.971 255.558 316.165 256.221 315.059 257.548C313.929 258.875 313.364 261.147 313.364 264.366V275.275C313.364 276.651 313.352 277.806 313.327 278.74C313.278 279.649 313.204 280.411 313.106 281.025C313.008 281.614 312.897 282.106 312.774 282.499C312.627 282.892 312.492 283.322 312.369 283.789H301.275ZM319.003 224.378C317.086 224.378 315.686 224.943 314.801 226.073C313.892 227.203 313.438 229.021 313.438 231.528V238.346C313.438 241.122 314.015 243.039 315.17 244.095C316.325 245.152 317.934 245.68 319.998 245.68H324.236V224.378H319.003Z" fill="#0D1619"/>
<path d="M367.616 263.703L375.024 214.5H390.171V283.789H379.889V234.071L372.37 283.789H362.051L353.942 234.771V283.789H344.434V214.5H359.581L367.616 263.703Z" fill="#0D1619"/>
<path d="M135.315 0.884521H0.12793C11.4549 14.6194 22.7819 28.3543 34.1089 42.0892H135.057C142.759 42.0892 148.988 48.3178 148.988 56.0206C148.988 59.8905 147.44 63.3549 144.934 65.8611C142.391 68.4041 138.926 69.952 135.057 69.952H75.5715V69.9152H34.2931V69.952V111.083V176.686H75.5715V111.083H135.315C150.536 111.083 164.32 104.928 174.271 94.9402C184.259 84.9892 190.414 71.2051 190.414 55.9837C190.414 25.541 165.757 0.884521 135.315 0.884521Z" fill="#0D1619"/>
<path d="M255.243 69.952C251.373 69.952 247.909 68.4041 245.366 65.8611C242.859 63.3549 241.312 59.8904 241.312 56.0206C241.312 48.3178 247.54 42.0892 255.243 42.0892H356.191C367.518 28.3543 378.845 14.6194 390.172 0.884521H254.985C224.542 0.884521 199.886 25.541 199.886 55.9837C199.886 71.2051 206.041 84.9892 216.029 94.9402C225.98 104.928 239.764 111.083 254.985 111.083H256.828L201.839 176.502H243.081L298.069 111.083L332.64 69.952H291.398H255.243Z" fill="#E44900"/>
<path d="M351.842 176.723H390.577V128.258C377.653 144.401 364.741 160.556 351.842 176.723Z" fill="#E44900"/>
</g>
<defs>
<clipPath id="clip0_88_1793">
<rect width="391.407" height="286" fill="white" transform="translate(0.0170898)"/>
</clipPath>
</defs>
</svg>
