<svg width="333" height="92" viewBox="0 0 333 92" fill="none" xmlns="http://www.w3.org/2000/svg">
<g clip-path="url(#clip0_88_1663)">
<g clip-path="url(#clip1_88_1663)">
<g clip-path="url(#clip2_88_1663)">
<path fill-rule="evenodd" clip-rule="evenodd" d="M16.0699 68.4976C17.8196 68.4976 19.122 68.9605 19.9773 69.8863C20.8325 70.8122 21.2601 72.1696 21.2601 73.9585V76.842C21.2601 78.631 20.8325 79.9883 19.9773 80.9142C19.122 81.8401 17.8196 82.303 16.0699 82.303H14.4339V90.6239H10.9502V68.4976H16.0699ZM14.4221 71.6517V79.1488H16.0699C16.6191 79.1488 17.0389 78.9997 17.3292 78.7016C17.6273 78.4113 17.7764 77.862 17.7764 77.0539V73.7349C17.7764 72.9346 17.6273 72.3893 17.3292 72.099C17.0389 71.8008 16.6191 71.6517 16.0699 71.6517H14.4221Z" fill="#0D1619"/>
<path d="M26.7566 77.8189H31.535V80.9848H26.7566V87.4579H32.759V90.6239H23.2847V68.4976H32.759V71.6517H26.7566V77.8189Z" fill="#0D1619"/>
<path d="M42.6568 84.2096L45.0342 68.4976H49.8714V90.6239H46.576V74.7471L44.175 90.6239H40.8914L38.2903 74.9707V90.6239H35.2656V68.4976H40.1028L42.6568 84.2096Z" fill="#0D1619"/>
<path fill-rule="evenodd" clip-rule="evenodd" d="M52.5195 73.8054C52.5195 72.0165 52.9746 70.6395 53.8848 69.6744C54.7871 68.7171 56.0935 68.2385 57.804 68.2385C59.5066 68.2385 60.813 68.7171 61.7231 69.6744C62.6255 70.6395 63.0766 72.0165 63.0766 73.8054V85.3158C63.0766 87.1048 62.6255 88.4779 61.7231 89.4351C60.813 90.3923 59.5066 90.8709 57.804 90.8709C56.0935 90.8709 54.7871 90.3923 53.8848 89.4351C52.9746 88.4779 52.5195 87.1048 52.5195 85.3158V73.8054ZM56.0033 85.5277C56.0033 86.328 56.1641 86.8929 56.4858 87.2225C56.8153 87.5441 57.2547 87.705 57.804 87.705C58.3532 87.705 58.7887 87.5441 59.1104 87.2225C59.4399 86.8929 59.6047 86.328 59.6047 85.5277V73.5818C59.6047 72.7815 59.4399 72.2166 59.1104 71.887C58.7887 71.5575 58.3532 71.3927 57.804 71.3927C57.2547 71.3927 56.8153 71.5575 56.4858 71.887C56.1641 72.2166 56.0033 72.7815 56.0033 73.5818V85.5277Z" fill="#0D1619"/>
<path d="M69.2083 90.6239H65.7363V68.4976H69.2083V77.9719H73.1628V68.4976H76.7053V90.6239H73.1628V81.1378H69.2083V90.6239Z" fill="#0D1619"/>
<path d="M78.73 68.4976H89.4754V71.6517H85.8387V90.6239H82.3667V71.6517H78.73V68.4976Z" fill="#0D1619"/>
<path fill-rule="evenodd" clip-rule="evenodd" d="M96.207 90.6239C96.3796 90.2002 96.4856 89.7844 96.5248 89.3764C96.564 88.9605 96.5836 88.478 96.5836 87.9287V84.5156C96.5836 83.3622 96.7484 82.3775 97.078 81.5615C97.4075 80.7534 98.0156 80.1688 98.9022 79.8079C97.38 79.0939 96.619 77.5992 96.619 75.3238V73.5819C96.619 71.8714 97.027 70.5964 97.843 69.7569C98.6511 68.9173 99.9614 68.4976 101.774 68.4976H107.023V90.6239H103.539V81.6086H102.339C101.539 81.6086 100.962 81.8204 100.609 82.2441C100.248 82.6678 100.067 83.3936 100.067 84.4215V87.9052C100.067 88.3446 100.063 88.7133 100.056 89.0115C100.04 89.3018 100.016 89.545 99.985 89.7412C99.9536 89.9295 99.9183 90.0864 99.8791 90.212C99.832 90.3375 99.7888 90.4748 99.7496 90.6239H96.207ZM101.868 71.6517C101.256 71.6517 100.809 71.8322 100.526 72.1931C100.236 72.5541 100.091 73.1347 100.091 73.935V76.1123C100.091 76.9989 100.275 77.6109 100.644 77.9483C101.013 78.2857 101.527 78.4544 102.186 78.4544H103.539V71.6517H101.868Z" fill="#0D1619"/>
<path d="M117.392 84.2096L119.758 68.4976H124.595V90.6239H121.311V74.7471L118.91 90.6239H115.615L113.026 74.9707V90.6239H109.989V68.4976H114.826L117.392 84.2096Z" fill="#0D1619"/>
<path d="M43.2099 0.282471H0.0400391C3.65715 4.66851 7.27425 9.05454 10.8914 13.4406H43.1276C45.5873 13.4406 47.5764 15.4296 47.5764 17.8894C47.5764 19.1252 47.0821 20.2315 46.2817 21.0318C45.4697 21.8439 44.3633 22.3382 43.1276 22.3382H24.1319V22.3264H10.9502V22.3382V35.4728V56.4222H24.1319V35.4728H43.2099C48.0707 35.4728 52.4724 33.5073 55.6501 30.3178C58.8396 27.1401 60.8051 22.7384 60.8051 17.8776C60.8051 8.15615 52.9314 0.282471 43.2099 0.282471Z" fill="#0D1619"/>
<path d="M81.5071 22.3382C80.2713 22.3382 79.165 21.8439 78.3529 21.0318C77.5526 20.2315 77.0583 19.1252 77.0583 17.8894C77.0583 15.4296 79.0473 13.4406 81.5071 13.4406H113.743C117.36 9.05454 120.978 4.66851 124.595 0.282471H81.4247C71.7033 0.282471 63.8296 8.15615 63.8296 17.8776C63.8296 22.7384 65.7951 27.1401 68.9846 30.3178C72.1623 33.5073 76.564 35.4728 81.4247 35.4728H82.0132L64.4534 56.3633H77.6232L95.1831 35.4728L106.223 22.3382H93.0528H81.5071Z" fill="#E44900"/>
<path d="M112.354 56.4339H124.724V40.9573C120.597 46.1122 116.474 51.2711 112.354 56.4339Z" fill="#E44900"/>
</g>
</g>
</g>
<path d="M157.734 28.3594V40H156.328V29.6094H150.469V40H149.062V28.3594H157.734ZM159.656 43.2656V31.2656H160.938V32.6562H161.094C161.193 32.5052 161.331 32.3125 161.508 32.0781C161.685 31.8385 161.94 31.625 162.273 31.4375C162.607 31.25 163.057 31.1562 163.625 31.1562C164.359 31.1562 165.005 31.3411 165.562 31.7109C166.12 32.0755 166.555 32.5964 166.867 33.2734C167.185 33.9453 167.344 34.7396 167.344 35.6562C167.344 36.5781 167.188 37.3802 166.875 38.0625C166.562 38.7396 166.128 39.263 165.57 39.6328C165.013 40.0026 164.37 40.1875 163.641 40.1875C163.083 40.1875 162.635 40.0938 162.297 39.9062C161.958 39.7135 161.698 39.4974 161.516 39.2578C161.333 39.013 161.193 38.8125 161.094 38.6562H160.984V43.2656H159.656ZM163.469 38.9844C164.026 38.9844 164.492 38.8359 164.867 38.5391C165.242 38.237 165.523 37.8333 165.711 37.3281C165.904 36.8229 166 36.2604 166 35.6406C166 35.026 165.906 34.4714 165.719 33.9766C165.531 33.4818 165.25 33.0885 164.875 32.7969C164.505 32.5052 164.036 32.3594 163.469 32.3594C162.922 32.3594 162.464 32.4974 162.094 32.7734C161.724 33.0443 161.443 33.4271 161.25 33.9219C161.062 34.4115 160.969 34.9844 160.969 35.6406C160.969 36.2969 161.065 36.8776 161.258 37.3828C161.451 37.8828 161.732 38.276 162.102 38.5625C162.477 38.8438 162.932 38.9844 163.469 38.9844ZM172.172 40.1875C171.385 40.1875 170.695 40 170.102 39.625C169.508 39.25 169.044 38.724 168.711 38.0469C168.383 37.3698 168.219 36.5833 168.219 35.6875C168.219 34.776 168.383 33.9818 168.711 33.3047C169.044 32.6224 169.508 32.0938 170.102 31.7188C170.695 31.3438 171.385 31.1562 172.172 31.1562C172.964 31.1562 173.656 31.3438 174.25 31.7188C174.844 32.0938 175.307 32.6224 175.641 33.3047C175.974 33.9818 176.141 34.776 176.141 35.6875C176.141 36.5833 175.974 37.3698 175.641 38.0469C175.307 38.724 174.844 39.25 174.25 39.625C173.656 40 172.964 40.1875 172.172 40.1875ZM172.172 38.9844C172.776 38.9844 173.271 38.8307 173.656 38.5234C174.042 38.2161 174.328 37.8125 174.516 37.3125C174.703 36.8073 174.797 36.2656 174.797 35.6875C174.797 35.099 174.703 34.5521 174.516 34.0469C174.328 33.5417 174.042 33.1354 173.656 32.8281C173.271 32.5156 172.776 32.3594 172.172 32.3594C171.578 32.3594 171.089 32.5156 170.703 32.8281C170.318 33.1354 170.031 33.5417 169.844 34.0469C169.656 34.5521 169.562 35.099 169.562 35.6875C169.562 36.2656 169.656 36.8073 169.844 37.3125C170.031 37.8125 170.318 38.2161 170.703 38.5234C171.089 38.8307 171.578 38.9844 172.172 38.9844ZM178.766 38.0156L182.969 31.2656H184.516V40H183.188V33.25L179 40H177.438V31.2656H178.766V38.0156ZM186.062 37.7656H187.484C187.521 38.1615 187.703 38.4635 188.031 38.6719C188.359 38.875 188.786 38.9792 189.312 38.9844C189.849 38.9792 190.307 38.8672 190.688 38.6484C191.068 38.4245 191.26 38.0625 191.266 37.5625C191.266 37.2708 191.193 37.0182 191.047 36.8047C190.901 36.5859 190.698 36.4167 190.438 36.2969C190.177 36.1719 189.87 36.1094 189.516 36.1094H188.016V34.9062H189.516C190.047 34.9062 190.44 34.7865 190.695 34.5469C190.951 34.3073 191.078 34.0052 191.078 33.6406C191.078 33.25 190.94 32.9375 190.664 32.7031C190.388 32.4635 189.995 32.3438 189.484 32.3438C188.979 32.3438 188.555 32.4583 188.211 32.6875C187.872 32.9115 187.693 33.2031 187.672 33.5625H186.266C186.281 33.0938 186.424 32.6797 186.695 32.3203C186.966 31.9557 187.336 31.6719 187.805 31.4688C188.279 31.2604 188.818 31.1562 189.422 31.1562C190.036 31.1562 190.568 31.263 191.016 31.4766C191.469 31.6901 191.82 31.9818 192.07 32.3516C192.32 32.7161 192.443 33.1302 192.438 33.5938C192.443 34.0833 192.305 34.4818 192.023 34.7891C191.747 35.0911 191.401 35.3073 190.984 35.4375V35.5156C191.312 35.5417 191.599 35.6484 191.844 35.8359C192.094 36.0234 192.286 36.2682 192.422 36.5703C192.557 36.8672 192.625 37.1979 192.625 37.5625C192.625 38.0938 192.482 38.5573 192.195 38.9531C191.914 39.3438 191.526 39.6458 191.031 39.8594C190.536 40.0729 189.969 40.1823 189.328 40.1875C188.708 40.1823 188.154 40.0781 187.664 39.875C187.18 39.6719 186.794 39.3906 186.508 39.0312C186.227 38.6667 186.078 38.2448 186.062 37.7656ZM193.391 40V31.2656H196.953C197.891 31.2708 198.635 31.487 199.188 31.9141C199.745 32.3359 200.021 32.8958 200.016 33.5938C200.021 34.125 199.865 34.5339 199.547 34.8203C199.234 35.1068 198.833 35.3021 198.344 35.4062C198.661 35.4531 198.971 35.5677 199.273 35.75C199.581 35.9323 199.836 36.1823 200.039 36.5C200.242 36.8125 200.344 37.1979 200.344 37.6562C200.344 38.1042 200.229 38.5052 200 38.8594C199.771 39.2135 199.445 39.4922 199.023 39.6953C198.602 39.8984 198.094 40 197.5 40H193.391ZM194.656 38.7656H197.5C197.958 38.7708 198.318 38.6641 198.578 38.4453C198.844 38.2266 198.974 37.9271 198.969 37.5469C198.974 37.0938 198.844 36.7396 198.578 36.4844C198.318 36.224 197.958 36.0938 197.5 36.0938H194.656V38.7656ZM194.656 34.9375H196.953C197.49 34.9323 197.911 34.8203 198.219 34.6016C198.526 34.3776 198.677 34.0729 198.672 33.6875C198.677 33.3177 198.526 33.0286 198.219 32.8203C197.911 32.6068 197.49 32.5 196.953 32.5H194.656V34.9375ZM205.156 40.1875C204.37 40.1875 203.68 40 203.086 39.625C202.492 39.25 202.029 38.724 201.695 38.0469C201.367 37.3698 201.203 36.5833 201.203 35.6875C201.203 34.776 201.367 33.9818 201.695 33.3047C202.029 32.6224 202.492 32.0938 203.086 31.7188C203.68 31.3438 204.37 31.1562 205.156 31.1562C205.948 31.1562 206.641 31.3438 207.234 31.7188C207.828 32.0938 208.292 32.6224 208.625 33.3047C208.958 33.9818 209.125 34.776 209.125 35.6875C209.125 36.5833 208.958 37.3698 208.625 38.0469C208.292 38.724 207.828 39.25 207.234 39.625C206.641 40 205.948 40.1875 205.156 40.1875ZM205.156 38.9844C205.76 38.9844 206.255 38.8307 206.641 38.5234C207.026 38.2161 207.312 37.8125 207.5 37.3125C207.688 36.8073 207.781 36.2656 207.781 35.6875C207.781 35.099 207.688 34.5521 207.5 34.0469C207.312 33.5417 207.026 33.1354 206.641 32.8281C206.255 32.5156 205.76 32.3594 205.156 32.3594C204.562 32.3594 204.073 32.5156 203.688 32.8281C203.302 33.1354 203.016 33.5417 202.828 34.0469C202.641 34.5521 202.547 35.099 202.547 35.6875C202.547 36.2656 202.641 36.8073 202.828 37.3125C203.016 37.8125 203.302 38.2161 203.688 38.5234C204.073 38.8307 204.562 38.9844 205.156 38.9844ZM209.484 42.5V38.75H210.203C210.38 38.5625 210.534 38.362 210.664 38.1484C210.799 37.9349 210.914 37.6797 211.008 37.3828C211.102 37.0807 211.182 36.7161 211.25 36.2891C211.323 35.862 211.385 35.3438 211.438 34.7344L211.734 31.2656H217.281V38.75H218.625V42.5H217.281V40H210.828V42.5H209.484ZM211.734 38.75H215.938V32.5156H212.984L212.75 34.7344C212.661 35.6458 212.547 36.4427 212.406 37.125C212.266 37.8073 212.042 38.349 211.734 38.75ZM223.188 40.1875C222.375 40.1875 221.672 39.9948 221.078 39.6094C220.49 39.2188 220.034 38.6849 219.711 38.0078C219.393 37.3307 219.234 36.5573 219.234 35.6875C219.234 34.7969 219.398 34.013 219.727 33.3359C220.055 32.6536 220.513 32.1198 221.102 31.7344C221.695 31.349 222.385 31.1562 223.172 31.1562C223.786 31.1562 224.339 31.2708 224.828 31.5C225.323 31.724 225.727 32.0417 226.039 32.4531C226.357 32.8646 226.552 33.3438 226.625 33.8906H225.281C225.214 33.625 225.091 33.375 224.914 33.1406C224.737 32.9062 224.503 32.7188 224.211 32.5781C223.924 32.4323 223.583 32.3594 223.188 32.3594C222.667 32.3594 222.211 32.4948 221.82 32.7656C221.43 33.0365 221.125 33.4193 220.906 33.9141C220.688 34.4036 220.578 34.9792 220.578 35.6406C220.578 36.3125 220.685 36.901 220.898 37.4062C221.112 37.9062 221.414 38.2943 221.805 38.5703C222.201 38.8464 222.661 38.9844 223.188 38.9844C223.714 38.9844 224.164 38.849 224.539 38.5781C224.914 38.3021 225.161 37.9271 225.281 37.4531H226.625C226.552 37.9688 226.365 38.4323 226.062 38.8438C225.766 39.2552 225.372 39.5833 224.883 39.8281C224.398 40.0677 223.833 40.1875 223.188 40.1875ZM226.75 32.5156V31.2656H233.828V32.5156H230.969V40H229.625V32.5156H226.75ZM235.047 40V31.2656H238.609C239.547 31.2708 240.292 31.487 240.844 31.9141C241.401 32.3359 241.677 32.8958 241.672 33.5938C241.677 34.125 241.521 34.5339 241.203 34.8203C240.891 35.1068 240.49 35.3021 240 35.4062C240.318 35.4531 240.628 35.5677 240.93 35.75C241.237 35.9323 241.492 36.1823 241.695 36.5C241.898 36.8125 242 37.1979 242 37.6562C242 38.1042 241.885 38.5052 241.656 38.8594C241.427 39.2135 241.102 39.4922 240.68 39.6953C240.258 39.8984 239.75 40 239.156 40H235.047ZM236.312 38.7656H239.156C239.615 38.7708 239.974 38.6641 240.234 38.4453C240.5 38.2266 240.63 37.9271 240.625 37.5469C240.63 37.0938 240.5 36.7396 240.234 36.4844C239.974 36.224 239.615 36.0938 239.156 36.0938H236.312V38.7656ZM236.312 34.9375H238.609C239.146 34.9323 239.568 34.8203 239.875 34.6016C240.182 34.3776 240.333 34.0729 240.328 33.6875C240.333 33.3177 240.182 33.0286 239.875 32.8203C239.568 32.6068 239.146 32.5 238.609 32.5H236.312V34.9375ZM246.812 40.1875C246.026 40.1875 245.336 40 244.742 39.625C244.148 39.25 243.685 38.724 243.352 38.0469C243.023 37.3698 242.859 36.5833 242.859 35.6875C242.859 34.776 243.023 33.9818 243.352 33.3047C243.685 32.6224 244.148 32.0938 244.742 31.7188C245.336 31.3438 246.026 31.1562 246.812 31.1562C247.604 31.1562 248.297 31.3438 248.891 31.7188C249.484 32.0938 249.948 32.6224 250.281 33.3047C250.615 33.9818 250.781 34.776 250.781 35.6875C250.781 36.5833 250.615 37.3698 250.281 38.0469C249.948 38.724 249.484 39.25 248.891 39.625C248.297 40 247.604 40.1875 246.812 40.1875ZM246.812 38.9844C247.417 38.9844 247.911 38.8307 248.297 38.5234C248.682 38.2161 248.969 37.8125 249.156 37.3125C249.344 36.8073 249.438 36.2656 249.438 35.6875C249.438 35.099 249.344 34.5521 249.156 34.0469C248.969 33.5417 248.682 33.1354 248.297 32.8281C247.911 32.5156 247.417 32.3594 246.812 32.3594C246.219 32.3594 245.729 32.5156 245.344 32.8281C244.958 33.1354 244.672 33.5417 244.484 34.0469C244.297 34.5521 244.203 35.099 244.203 35.6875C244.203 36.2656 244.297 36.8073 244.484 37.3125C244.672 37.8125 244.958 38.2161 245.344 38.5234C245.729 38.8307 246.219 38.9844 246.812 38.9844ZM257.156 38.0156L261.359 31.2656H262.906V40H261.578V33.25L257.391 40H255.828V31.2656H257.156V38.0156ZM268.375 40V31.2656H275.234V40H273.891V32.5156H269.703V40H268.375ZM276.953 43.2656V31.2656H278.234V32.6562H278.391C278.49 32.5052 278.628 32.3125 278.805 32.0781C278.982 31.8385 279.237 31.625 279.57 31.4375C279.904 31.25 280.354 31.1562 280.922 31.1562C281.656 31.1562 282.302 31.3411 282.859 31.7109C283.417 32.0755 283.852 32.5964 284.164 33.2734C284.482 33.9453 284.641 34.7396 284.641 35.6562C284.641 36.5781 284.484 37.3802 284.172 38.0625C283.859 38.7396 283.424 39.263 282.867 39.6328C282.31 40.0026 281.667 40.1875 280.938 40.1875C280.38 40.1875 279.932 40.0938 279.594 39.9062C279.255 39.7135 278.995 39.4974 278.812 39.2578C278.63 39.013 278.49 38.8125 278.391 38.6562H278.281V43.2656H276.953ZM280.766 38.9844C281.323 38.9844 281.789 38.8359 282.164 38.5391C282.539 38.237 282.82 37.8333 283.008 37.3281C283.201 36.8229 283.297 36.2604 283.297 35.6406C283.297 35.026 283.203 34.4714 283.016 33.9766C282.828 33.4818 282.547 33.0885 282.172 32.7969C281.802 32.5052 281.333 32.3594 280.766 32.3594C280.219 32.3594 279.76 32.4974 279.391 32.7734C279.021 33.0443 278.74 33.4271 278.547 33.9219C278.359 34.4115 278.266 34.9844 278.266 35.6406C278.266 36.2969 278.362 36.8776 278.555 37.3828C278.747 37.8828 279.029 38.276 279.398 38.5625C279.773 38.8438 280.229 38.9844 280.766 38.9844ZM289.469 40.1875C288.682 40.1875 287.992 40 287.398 39.625C286.805 39.25 286.341 38.724 286.008 38.0469C285.68 37.3698 285.516 36.5833 285.516 35.6875C285.516 34.776 285.68 33.9818 286.008 33.3047C286.341 32.6224 286.805 32.0938 287.398 31.7188C287.992 31.3438 288.682 31.1562 289.469 31.1562C290.26 31.1562 290.953 31.3438 291.547 31.7188C292.141 32.0938 292.604 32.6224 292.938 33.3047C293.271 33.9818 293.438 34.776 293.438 35.6875C293.438 36.5833 293.271 37.3698 292.938 38.0469C292.604 38.724 292.141 39.25 291.547 39.625C290.953 40 290.26 40.1875 289.469 40.1875ZM289.469 38.9844C290.073 38.9844 290.568 38.8307 290.953 38.5234C291.339 38.2161 291.625 37.8125 291.812 37.3125C292 36.8073 292.094 36.2656 292.094 35.6875C292.094 35.099 292 34.5521 291.812 34.0469C291.625 33.5417 291.339 33.1354 290.953 32.8281C290.568 32.5156 290.073 32.3594 289.469 32.3594C288.875 32.3594 288.385 32.5156 288 32.8281C287.615 33.1354 287.328 33.5417 287.141 34.0469C286.953 34.5521 286.859 35.099 286.859 35.6875C286.859 36.2656 286.953 36.8073 287.141 37.3125C287.328 37.8125 287.615 38.2161 288 38.5234C288.385 38.8307 288.875 38.9844 289.469 38.9844ZM293.797 42.5V38.75H294.516C294.693 38.5625 294.846 38.362 294.977 38.1484C295.112 37.9349 295.227 37.6797 295.32 37.3828C295.414 37.0807 295.495 36.7161 295.562 36.2891C295.635 35.862 295.698 35.3438 295.75 34.7344L296.047 31.2656H301.594V38.75H302.938V42.5H301.594V40H295.141V42.5H293.797ZM296.047 38.75H300.25V32.5156H297.297L297.062 34.7344C296.974 35.6458 296.859 36.4427 296.719 37.125C296.578 37.8073 296.354 38.349 296.047 38.75ZM306.531 40.2031C305.979 40.2031 305.477 40.099 305.023 39.8906C304.57 39.6771 304.211 39.3698 303.945 38.9688C303.68 38.5677 303.547 38.0833 303.547 37.5156C303.547 37.0156 303.646 36.612 303.844 36.3047C304.042 35.9922 304.305 35.7474 304.633 35.5703C304.966 35.388 305.331 35.2526 305.727 35.1641C306.128 35.0755 306.531 35.0052 306.938 34.9531C307.469 34.8854 307.898 34.8333 308.227 34.7969C308.56 34.7604 308.802 34.6979 308.953 34.6094C309.109 34.5208 309.188 34.3698 309.188 34.1562V34.1094C309.188 33.5521 309.034 33.1198 308.727 32.8125C308.424 32.5 307.964 32.3438 307.344 32.3438C306.708 32.3438 306.208 32.4844 305.844 32.7656C305.479 33.0417 305.224 33.3385 305.078 33.6562L303.797 33.2031C304.026 32.6719 304.331 32.2578 304.711 31.9609C305.096 31.6641 305.513 31.4557 305.961 31.3359C306.414 31.2161 306.859 31.1562 307.297 31.1562C307.578 31.1562 307.901 31.1901 308.266 31.2578C308.63 31.3203 308.984 31.4557 309.328 31.6641C309.677 31.8672 309.964 32.1771 310.188 32.5938C310.417 33.0052 310.531 33.5573 310.531 34.25V40H309.188V38.8125H309.125C309.036 39 308.885 39.2031 308.672 39.4219C308.458 39.6354 308.174 39.8203 307.82 39.9766C307.471 40.1276 307.042 40.2031 306.531 40.2031ZM306.734 39C307.266 39 307.714 38.8958 308.078 38.6875C308.443 38.4792 308.719 38.2109 308.906 37.8828C309.094 37.5495 309.188 37.2031 309.188 36.8438V35.6094C309.13 35.6771 309.005 35.7396 308.812 35.7969C308.625 35.849 308.406 35.8958 308.156 35.9375C307.911 35.9792 307.672 36.0156 307.438 36.0469C307.203 36.0729 307.016 36.0938 306.875 36.1094C306.526 36.1562 306.201 36.2318 305.898 36.3359C305.596 36.4349 305.352 36.5833 305.164 36.7812C304.982 36.9792 304.891 37.25 304.891 37.5938C304.891 38.0573 305.062 38.4089 305.406 38.6484C305.755 38.8828 306.198 39 306.734 39ZM311.703 40L315.25 35.5625L311.75 31.2656H313.328L316.25 35H316.969V31.2656H318.312V35H319.016L321.922 31.2656H323.516L320.031 35.5625L323.562 40H321.953L319 36.25H318.312V40H316.969V36.25H316.281L313.312 40H311.703ZM327.297 40.2031C326.745 40.2031 326.242 40.099 325.789 39.8906C325.336 39.6771 324.977 39.3698 324.711 38.9688C324.445 38.5677 324.312 38.0833 324.312 37.5156C324.312 37.0156 324.411 36.612 324.609 36.3047C324.807 35.9922 325.07 35.7474 325.398 35.5703C325.732 35.388 326.096 35.2526 326.492 35.1641C326.893 35.0755 327.297 35.0052 327.703 34.9531C328.234 34.8854 328.664 34.8333 328.992 34.7969C329.326 34.7604 329.568 34.6979 329.719 34.6094C329.875 34.5208 329.953 34.3698 329.953 34.1562V34.1094C329.953 33.5521 329.799 33.1198 329.492 32.8125C329.19 32.5 328.729 32.3438 328.109 32.3438C327.474 32.3438 326.974 32.4844 326.609 32.7656C326.245 33.0417 325.99 33.3385 325.844 33.6562L324.562 33.2031C324.792 32.6719 325.096 32.2578 325.477 31.9609C325.862 31.6641 326.279 31.4557 326.727 31.3359C327.18 31.2161 327.625 31.1562 328.062 31.1562C328.344 31.1562 328.667 31.1901 329.031 31.2578C329.396 31.3203 329.75 31.4557 330.094 31.6641C330.443 31.8672 330.729 32.1771 330.953 32.5938C331.182 33.0052 331.297 33.5573 331.297 34.25V40H329.953V38.8125H329.891C329.802 39 329.651 39.2031 329.438 39.4219C329.224 39.6354 328.94 39.8203 328.586 39.9766C328.237 40.1276 327.807 40.2031 327.297 40.2031ZM327.5 39C328.031 39 328.479 38.8958 328.844 38.6875C329.208 38.4792 329.484 38.2109 329.672 37.8828C329.859 37.5495 329.953 37.2031 329.953 36.8438V35.6094C329.896 35.6771 329.771 35.7396 329.578 35.7969C329.391 35.849 329.172 35.8958 328.922 35.9375C328.677 35.9792 328.438 36.0156 328.203 36.0469C327.969 36.0729 327.781 36.0938 327.641 36.1094C327.292 36.1562 326.966 36.2318 326.664 36.3359C326.362 36.4349 326.117 36.5833 325.93 36.7812C325.747 36.9792 325.656 37.25 325.656 37.5938C325.656 38.0573 325.828 38.4089 326.172 38.6484C326.521 38.8828 326.964 39 327.5 39ZM152.391 63.1875C151.578 63.1875 150.875 62.9948 150.281 62.6094C149.693 62.2188 149.237 61.6849 148.914 61.0078C148.596 60.3307 148.438 59.5573 148.438 58.6875C148.438 57.7969 148.602 57.013 148.93 56.3359C149.258 55.6536 149.716 55.1198 150.305 54.7344C150.898 54.349 151.589 54.1562 152.375 54.1562C152.99 54.1562 153.542 54.2708 154.031 54.5C154.526 54.724 154.93 55.0417 155.242 55.4531C155.56 55.8646 155.755 56.3438 155.828 56.8906H154.484C154.417 56.625 154.294 56.375 154.117 56.1406C153.94 55.9062 153.706 55.7188 153.414 55.5781C153.128 55.4323 152.786 55.3594 152.391 55.3594C151.87 55.3594 151.414 55.4948 151.023 55.7656C150.633 56.0365 150.328 56.4193 150.109 56.9141C149.891 57.4036 149.781 57.9792 149.781 58.6406C149.781 59.3125 149.888 59.901 150.102 60.4062C150.315 60.9062 150.617 61.2943 151.008 61.5703C151.404 61.8464 151.865 61.9844 152.391 61.9844C152.917 61.9844 153.367 61.849 153.742 61.5781C154.117 61.3021 154.365 60.9271 154.484 60.4531H155.828C155.755 60.9688 155.568 61.4323 155.266 61.8438C154.969 62.2552 154.576 62.5833 154.086 62.8281C153.602 63.0677 153.036 63.1875 152.391 63.1875ZM157.094 63V54.2656H163.953V63H162.609V55.5156H158.422V63H157.094ZM169.328 63.1875C168.49 63.1875 167.763 63 167.148 62.625C166.539 62.25 166.07 61.7266 165.742 61.0547C165.414 60.3776 165.25 59.5938 165.25 58.7031C165.25 57.8073 165.411 57.0182 165.734 56.3359C166.057 55.6536 166.51 55.1198 167.094 54.7344C167.682 54.349 168.37 54.1562 169.156 54.1562C169.609 54.1562 170.06 54.2318 170.508 54.3828C170.956 54.5339 171.362 54.7786 171.727 55.1172C172.096 55.4557 172.391 55.9036 172.609 56.4609C172.828 57.0182 172.938 57.7031 172.938 58.5156V59.0938H166.203V57.9375H172.211L171.594 58.375C171.594 57.7917 171.503 57.2734 171.32 56.8203C171.138 56.3672 170.865 56.0104 170.5 55.75C170.141 55.4896 169.693 55.3594 169.156 55.3594C168.62 55.3594 168.159 55.4922 167.773 55.7578C167.393 56.0182 167.102 56.3594 166.898 56.7812C166.695 57.2031 166.594 57.6562 166.594 58.1406V58.9062C166.594 59.5677 166.708 60.1276 166.938 60.5859C167.167 61.0443 167.487 61.3932 167.898 61.6328C168.31 61.8672 168.786 61.9844 169.328 61.9844C169.677 61.9844 169.995 61.9349 170.281 61.8359C170.568 61.7318 170.815 61.5781 171.023 61.375C171.232 61.1667 171.391 60.9115 171.5 60.6094L172.797 60.9844C172.661 61.4219 172.432 61.8073 172.109 62.1406C171.792 62.4688 171.396 62.7266 170.922 62.9141C170.448 63.0964 169.917 63.1875 169.328 63.1875ZM181.062 54.2656V63H174.203V54.2656H175.547V61.75H179.734V54.2656H181.062ZM182.297 61.75V65.8125H180.953V61.75H182.297ZM182.891 55.5156V54.2656H189.969V55.5156H187.109V63H185.766V55.5156H182.891ZM194.391 63.1875C193.552 63.1875 192.826 63 192.211 62.625C191.602 62.25 191.133 61.7266 190.805 61.0547C190.477 60.3776 190.312 59.5938 190.312 58.7031C190.312 57.8073 190.474 57.0182 190.797 56.3359C191.12 55.6536 191.573 55.1198 192.156 54.7344C192.745 54.349 193.432 54.1562 194.219 54.1562C194.672 54.1562 195.122 54.2318 195.57 54.3828C196.018 54.5339 196.424 54.7786 196.789 55.1172C197.159 55.4557 197.453 55.9036 197.672 56.4609C197.891 57.0182 198 57.7031 198 58.5156V59.0938H191.266V57.9375H197.273L196.656 58.375C196.656 57.7917 196.565 57.2734 196.383 56.8203C196.201 56.3672 195.927 56.0104 195.562 55.75C195.203 55.4896 194.755 55.3594 194.219 55.3594C193.682 55.3594 193.221 55.4922 192.836 55.7578C192.456 56.0182 192.164 56.3594 191.961 56.7812C191.758 57.2031 191.656 57.6562 191.656 58.1406V58.9062C191.656 59.5677 191.771 60.1276 192 60.5859C192.229 61.0443 192.549 61.3932 192.961 61.6328C193.372 61.8672 193.849 61.9844 194.391 61.9844C194.74 61.9844 195.057 61.9349 195.344 61.8359C195.63 61.7318 195.878 61.5781 196.086 61.375C196.294 61.1667 196.453 60.9115 196.562 60.6094L197.859 60.9844C197.724 61.4219 197.495 61.8073 197.172 62.1406C196.854 62.4688 196.458 62.7266 195.984 62.9141C195.51 63.0964 194.979 63.1875 194.391 63.1875ZM200.031 54.2656L202.109 57.8438L204.203 54.2656H205.75L202.938 58.6406L205.75 63H204.203L202.109 59.6094L200.031 63H198.484L201.25 58.6406L198.484 54.2656H200.031ZM212.75 58.0156V59.2656H207.938V58.0156H212.75ZM208.25 54.2656V63H206.922V54.2656H208.25ZM213.781 54.2656V63H212.438V54.2656H213.781ZM216.828 61.0156L221.031 54.2656H222.578V63H221.25V56.25L217.062 63H215.5V54.2656H216.828V61.0156ZM224.297 63V54.2656H225.625V58.0625H226.516L229.656 54.2656H231.375L227.859 58.4844L231.422 63H229.703L226.828 59.3125H225.625V63H224.297ZM233.453 61.0156L237.656 54.2656H239.203V63H237.875V56.25L233.688 63H232.125V54.2656H233.453V61.0156Z" fill="#262121"/>
<defs>
<clipPath id="clip0_88_1663">
<rect width="125" height="91.33" fill="white"/>
</clipPath>
<clipPath id="clip1_88_1663">
<rect width="125" height="91.33" fill="white"/>
</clipPath>
<clipPath id="clip2_88_1663">
<rect width="124.99" height="91.33" fill="white" transform="translate(0.00488281)"/>
</clipPath>
</defs>
</svg>
