<svg width="78" height="77" viewBox="0 0 78 77" fill="none" xmlns="http://www.w3.org/2000/svg">
<path d="M24.4272 41.752H18.9691V44.803C17.7832 45.0889 16.6683 45.5571 15.6559 46.1761L13.4974 44.0183L9.63801 47.8769L11.7965 50.0348C11.1775 51.047 10.7093 52.1615 10.4233 53.3469H7.37158V58.8037H10.4234C10.7094 59.9893 11.1776 61.1038 11.7967 62.116L9.6379 64.2744L13.4973 68.133L15.6562 65.9746C16.6686 66.5935 17.7832 67.0681 18.969 67.3539V70.405H24.4271V67.3539C25.613 67.0681 26.7274 66.5937 27.7398 65.9746L29.8988 68.1331L33.7583 64.2745L31.5994 62.1162C32.2186 61.1039 32.6868 59.9893 32.9728 58.8037H36.0247V53.3469H32.9728C32.6869 52.1615 32.2188 51.0468 31.5996 50.0348L33.7581 47.8767L29.8987 44.0181L27.7402 46.1761C26.7277 45.5571 25.613 45.0889 24.4272 44.803V41.752Z" stroke="#E44900" stroke-width="1.63233"/>
<path d="M46.7079 6.3457L39.2202 9.31666L40.881 13.5022C39.4098 14.54 38.1352 15.7891 37.0832 17.1894L32.9476 15.404L29.7532 22.7981L33.8891 24.5837C33.5908 26.3092 33.5552 28.0929 33.8081 29.8748L29.6216 31.536L32.5919 39.0219L36.7785 37.3607C37.8162 38.8314 39.0652 40.1055 40.4655 41.1572L38.6787 45.2931L46.0735 48.4857L47.8604 44.3497C49.5862 44.6478 51.3736 44.6919 53.1559 44.4388L54.8167 48.6244L62.3042 45.6534L60.6435 41.4678C62.1148 40.4301 63.3854 39.1727 64.4374 37.7723L68.574 39.5582L71.7682 32.164L67.6318 30.3783C67.9302 28.6526 67.9659 26.8686 67.713 25.0865L71.8995 23.4253L68.9291 15.9394L64.7426 17.6006C63.705 16.1299 62.4561 14.8558 61.0557 13.8042L62.8423 9.66881L55.4474 6.47622L53.661 10.6115C51.9352 10.3134 50.151 10.2781 48.3686 10.5313L46.7079 6.3457Z" stroke="#0D1619" stroke-width="1.63233"/>
<path d="M21.6982 59.5803C23.6323 59.5803 25.2002 58.0123 25.2002 56.0782C25.2002 54.1441 23.6323 52.5762 21.6982 52.5762C19.7641 52.5762 18.1962 54.1441 18.1962 56.0782C18.1962 58.0123 19.7641 59.5803 21.6982 59.5803Z" stroke="#E44900" stroke-width="1.63233"/>
<path d="M56.1278 25.3554C57.304 28.3199 55.8543 31.6766 52.89 32.8528C49.9256 34.029 46.5688 32.5793 45.3926 29.615C44.2164 26.6505 45.666 23.2938 48.6304 22.1176C51.5949 20.9414 54.9516 22.3909 56.1278 25.3554Z" stroke="#0D1619" stroke-width="1.63233"/>
<path d="M12.4169 24.8363L31.6511 10.3906M71.4194 45.9002L54.936 67.5939" stroke="#0D1619" stroke-width="1.63233"/>
</svg>
