<svg width="17" height="21" viewBox="0 0 17 21" fill="none" xmlns="http://www.w3.org/2000/svg">
<path fill-rule="evenodd" clip-rule="evenodd" d="M8.49997 1.84458C10.2633 1.84458 11.9544 2.54243 13.2012 3.78461C14.4481 5.0268 15.1485 6.71157 15.1485 8.46826C15.1485 11.0321 13.4718 13.5322 11.6151 15.4848C10.7056 16.4412 9.79305 17.2244 9.10679 17.7688C8.87476 17.9529 8.66946 18.109 8.49998 18.2345C8.3305 18.109 8.1252 17.9529 7.89317 17.7688C7.20692 17.2244 6.29434 16.4412 5.3849 15.4848C3.52818 13.5322 1.85149 11.0321 1.85148 8.46826C1.85148 6.71156 2.55194 5.0268 3.79879 3.78462C5.04563 2.54243 6.73673 1.84458 8.49997 1.84458ZM8.49997 19.368C9.01348 20.1354 9.01371 20.1353 9.01397 20.1351L9.01649 20.1334C9.01795 20.1324 9.01987 20.1312 9.02225 20.1296C9.02699 20.1264 9.03354 20.122 9.04184 20.1164C9.05843 20.1051 9.08201 20.0891 9.11212 20.0683C9.17233 20.0268 9.25868 19.9664 9.36744 19.8881C9.58487 19.7316 9.89243 19.5035 10.2601 19.2118C10.994 18.6296 11.975 17.7883 12.9592 16.7534C14.8896 14.7233 17 11.7735 17 8.46826C17 6.22235 16.1045 4.06841 14.5104 2.4803C14.5104 2.4803 14.5104 2.4803 14.5104 2.4803M14.5104 2.4803C12.9164 0.892189 10.7543 5.06963e-07 8.49997 6.89953e-07C6.24568 8.72935e-07 4.08366 0.892192 2.4896 2.4803C0.895525 4.06841 2.41242e-06 6.22236 2.59472e-06 8.46826C2.86301e-06 11.7735 2.11042 14.7233 4.04081 16.7534C5.02494 17.7883 6.00592 18.6296 6.73983 19.2118C7.10752 19.5035 7.41508 19.7316 7.63251 19.8881C7.74127 19.9663 7.82762 20.0268 7.88783 20.0683C7.91793 20.0891 7.94152 20.1051 7.95811 20.1164C7.9664 20.122 7.97296 20.1264 7.9777 20.1296C7.98007 20.1312 7.982 20.1324 7.98346 20.1334L7.98598 20.1351C7.98624 20.1353 7.98647 20.1354 8.49997 19.368L7.98647 20.1354C8.29742 20.342 8.70252 20.342 9.01348 20.1354L8.49997 19.368" fill="#262121"/>
<path fill-rule="evenodd" clip-rule="evenodd" d="M12.0645 8.4998C12.0645 6.53119 10.4685 4.9353 8.49995 4.9353C6.53138 4.9353 4.93542 6.53118 4.93542 8.4998C4.93542 10.4684 6.53136 12.0643 8.49995 12.0643C10.4686 12.0643 12.0645 10.4684 12.0645 8.4998ZM8.49995 6.84797C9.41222 6.84797 10.1518 7.58754 10.1518 8.4998C10.1518 9.41207 9.4122 10.1517 8.49995 10.1517C7.58769 10.1517 6.84808 9.41206 6.84808 8.4998C6.84808 7.58755 7.58767 6.84797 8.49995 6.84797Z" fill="#262121"/>
</svg>
