<svg width="14" height="14" viewBox="0 0 14 14" fill="none" xmlns="http://www.w3.org/2000/svg">
<path d="M7 1C5.81331 1 4.65328 1.35189 3.66658 2.01118C2.67989 2.67047 1.91085 3.60754 1.45673 4.7039C1.0026 5.80026 0.88378 7.00665 1.11529 8.17054C1.3468 9.33443 1.91825 10.4035 2.75736 11.2426C3.59648 12.0818 4.66557 12.6532 5.82946 12.8847C6.99335 13.1162 8.19975 12.9974 9.2961 12.5433C10.3925 12.0892 11.3295 11.3201 11.9888 10.3334C12.6481 9.34673 13 8.18669 13 7C13 6.21207 12.8448 5.43185 12.5433 4.7039C12.2418 3.97595 11.7998 3.31451 11.2426 2.75736C10.6855 2.20021 10.0241 1.75825 9.2961 1.45672C8.56815 1.15519 7.78793 1 7 1ZM10.4056 5.9422L6.8056 9.2422C6.69162 9.34671 6.54169 9.40318 6.38709 9.39983C6.23248 9.39647 6.08514 9.33356 5.9758 9.2242L4.1758 7.4242C4.1185 7.36885 4.07279 7.30264 4.04134 7.22944C4.0099 7.15624 3.99334 7.07751 3.99265 6.99784C3.99196 6.91817 4.00714 6.83916 4.03731 6.76543C4.06748 6.69169 4.11203 6.6247 4.16837 6.56836C4.2247 6.51203 4.29169 6.46747 4.36543 6.43731C4.43917 6.40714 4.51818 6.39196 4.59784 6.39265C4.67751 6.39334 4.75624 6.40989 4.82944 6.44134C4.90265 6.47278 4.96885 6.51849 5.0242 6.5758L6.418 7.9696L9.5944 5.0578C9.71168 4.95023 9.86689 4.89365 10.0259 4.90051C10.1849 4.90738 10.3346 4.97712 10.4422 5.0944C10.5498 5.21168 10.6064 5.36689 10.5995 5.52588C10.5926 5.68487 10.5229 5.83463 10.4056 5.9422Z" fill="#3E8D50"/>
</svg>
