<svg width="16" height="16" viewBox="0 0 16 16" fill="none" xmlns="http://www.w3.org/2000/svg">
<path d="M7.38462 5.81818V1.45455C7.38462 1.06061 7.26282 0.719697 7.01923 0.431818C6.77564 0.143939 6.48718 0 6.15385 0H1.23077C0.897436 0 0.608974 0.143939 0.365385 0.431818C0.121795 0.719697 0 1.06061 0 1.45455V5.81818C0 6.21212 0.121795 6.55303 0.365385 6.84091C0.608974 7.12879 0.897436 7.27273 1.23077 7.27273H6.15385C6.48718 7.27273 6.77564 7.12879 7.01923 6.84091C7.26282 6.55303 7.38462 6.21212 7.38462 5.81818ZM7.38462 14.5455V10.1818C7.38462 9.78788 7.26282 9.44697 7.01923 9.15909C6.77564 8.87121 6.48718 8.72727 6.15385 8.72727H1.23077C0.897436 8.72727 0.608974 8.87121 0.365385 9.15909C0.121795 9.44697 0 9.78788 0 10.1818V14.5455C0 14.9394 0.121795 15.2803 0.365385 15.5682C0.608974 15.8561 0.897436 16 1.23077 16H6.15385C6.48718 16 6.77564 15.8561 7.01923 15.5682C7.26282 15.2803 7.38462 14.9394 7.38462 14.5455ZM16 5.81818V1.45455C16 1.06061 15.8782 0.719697 15.6346 0.431818C15.391 0.143939 15.1026 0 14.7692 0H9.84615C9.51282 0 9.22436 0.143939 8.98077 0.431818C8.73718 0.719697 8.61538 1.06061 8.61538 1.45455V5.81818C8.61538 6.21212 8.73718 6.55303 8.98077 6.84091C9.22436 7.12879 9.51282 7.27273 9.84615 7.27273H14.7692C15.1026 7.27273 15.391 7.12879 15.6346 6.84091C15.8782 6.55303 16 6.21212 16 5.81818ZM16 14.5455V10.1818C16 9.78788 15.8782 9.44697 15.6346 9.15909C15.391 8.87121 15.1026 8.72727 14.7692 8.72727H9.84615C9.51282 8.72727 9.22436 8.87121 8.98077 9.15909C8.73718 9.44697 8.61538 9.78788 8.61538 10.1818V14.5455C8.61538 14.9394 8.73718 15.2803 8.98077 15.5682C9.22436 15.8561 9.51282 16 9.84615 16H14.7692C15.1026 16 15.391 15.8561 15.6346 15.5682C15.8782 15.2803 16 14.9394 16 14.5455Z" fill="white"/>
</svg>
