<svg width="22" height="21" viewBox="0 0 22 21" fill="none" xmlns="http://www.w3.org/2000/svg">
<path d="M19.4578 2.64018C18.9691 2.1202 18.3889 1.70771 17.7503 1.42628C17.1117 1.14485 16.4272 1 15.7359 1C15.0446 1 14.3601 1.14485 13.7215 1.42628C13.0829 1.70771 12.5026 2.1202 12.0139 2.64018L10.9997 3.71883L9.98554 2.64018C8.99842 1.59034 7.6596 1.00054 6.26361 1.00054C4.86761 1.00054 3.52879 1.59034 2.54168 2.64018C1.55456 3.69002 1 5.11391 1 6.59861C1 8.08331 1.55456 9.5072 2.54168 10.557L10.9997 19.5525L19.4578 10.557C19.9467 10.0373 20.3346 9.4202 20.5992 8.741C20.8638 8.0618 21 7.33381 21 6.59861C21 5.86341 20.8638 5.13542 20.5992 4.45622C20.3346 3.77702 19.9467 3.15992 19.4578 2.64018Z" stroke="#E44900" stroke-width="2" stroke-linecap="round" stroke-linejoin="round"/>
</svg>
