<?xml version="1.0" encoding="utf-8"?><svg viewBox="0 0 27 24" xmlns="http://www.w3.org/2000/svg" xmlns:xlink="http://www.w3.org/1999/xlink"><style>:root>svg{display:none}:root>svg:target{display:block}</style><svg fill="none" viewBox="0 0 20 20" id="accepted" xmlns="http://www.w3.org/2000/svg"><path d="M19.144.764a1.666 1.666 0 0 0-2.305.491L7.499 15.65l-4.554-4.211a1.666 1.666 0 0 0-2.262 2.447l5.98 5.529s.171.148.25.2a1.666 1.666 0 0 0 2.306-.492L19.635 3.07a1.665 1.665 0 0 0-.491-2.305Z" fill="#E44900"/></svg><svg fill="none" viewBox="0 0 17 21" id="adress" xmlns="http://www.w3.org/2000/svg"><path fill-rule="evenodd" clip-rule="evenodd" d="M8.5 1.845c1.763 0 3.454.697 4.701 1.94a6.611 6.611 0 0 1 1.947 4.683c0 2.564-1.676 5.064-3.533 7.017a24.648 24.648 0 0 1-3.115 2.75 24.643 24.643 0 0 1-3.115-2.75C3.528 13.532 1.85 11.032 1.85 8.468c0-1.756.7-3.441 1.948-4.683A6.661 6.661 0 0 1 8.5 1.845Zm0 17.523.514.767.002-.002.006-.003.02-.014.07-.048a24.096 24.096 0 0 0 1.148-.857 26.504 26.504 0 0 0 2.7-2.458c1.93-2.03 4.04-4.98 4.04-8.285 0-2.246-.895-4.4-2.49-5.988m0 0A8.516 8.516 0 0 0 8.5 0a8.516 8.516 0 0 0-6.01 2.48A8.452 8.452 0 0 0 0 8.468c0 3.306 2.11 6.255 4.04 8.285a26.495 26.495 0 0 0 3.593 3.135c.108.078.195.139.255.18l.07.048.02.014.005.003.003.002.514-.767-.514.767a.928.928 0 0 0 1.027 0l-.513-.767" fill="#262121"/><path fill-rule="evenodd" clip-rule="evenodd" d="M12.065 8.5a3.565 3.565 0 1 0-7.13 0 3.565 3.565 0 0 0 7.13 0ZM8.5 6.848a1.652 1.652 0 1 1 0 3.304 1.652 1.652 0 0 1 0-3.304Z" fill="#262121"/></svg><svg fill="none" viewBox="0 0 14 24" id="arrow-left" xmlns="http://www.w3.org/2000/svg"><path fill-rule="evenodd" clip-rule="evenodd" d="M13.16.35a1.276 1.276 0 0 0-1.757 0L1.128 10.268a2.34 2.34 0 0 0 0 3.393l10.35 9.989c.48.463 1.258.469 1.745.012a1.17 1.17 0 0 0 .013-1.709l-9.473-9.14a1.17 1.17 0 0 1 0-1.697l9.398-9.069a1.168 1.168 0 0 0 0-1.695Z" fill="#E44900"/></svg><svg fill="none" viewBox="0 0 14 24" id="arrow-right" xmlns="http://www.w3.org/2000/svg"><path fill-rule="evenodd" clip-rule="evenodd" d="M.84 23.65a1.276 1.276 0 0 0 1.757 0l10.275-9.917a2.34 2.34 0 0 0 0-3.393L2.522.351A1.276 1.276 0 0 0 .777.339a1.17 1.17 0 0 0-.013 1.709l9.473 9.14a1.17 1.17 0 0 1 0 1.697L.839 21.953a1.169 1.169 0 0 0 0 1.696Z" fill="#E44900"/></svg><svg fill="none" viewBox="0 0 20 21" id="basket" xmlns="http://www.w3.org/2000/svg"><path d="M0 .9C0 .661.09.432.251.264A.837.837 0 0 1 .857 0h.638c1.086 0 1.737.767 2.109 1.48.248.475.427 1.026.568 1.525L4.286 3H18.57c.95 0 1.635.953 1.374 1.912l-2.089 7.69a3.31 3.31 0 0 1-1.129 1.73 3.047 3.047 0 0 1-1.893.666H8.035a3.047 3.047 0 0 1-1.906-.676 3.311 3.311 0 0 1-1.125-1.75l-.869-3.327-1.44-5.098-.001-.01c-.178-.68-.345-1.317-.594-1.792-.24-.462-.431-.545-.604-.545H.857a.837.837 0 0 1-.606-.264A.923.923 0 0 1 0 .9Zm5.798 7.908.858 3.287c.172.65.735 1.103 1.379 1.103h6.798c.31 0 .613-.107.86-.303.248-.196.429-.472.514-.786L18.192 4.8H4.67l1.113 3.944.016.064ZM9.715 18.6c0 .636-.24 1.247-.67 1.697-.428.45-1.01.703-1.616.703a2.232 2.232 0 0 1-1.616-.703 2.462 2.462 0 0 1-.67-1.697c0-.637.241-1.247.67-1.697a2.232 2.232 0 0 1 1.616-.703c.606 0 1.188.253 1.616.703.43.45.67 1.06.67 1.697Zm-1.714 0c0-.16-.06-.312-.168-.424A.558.558 0 0 0 7.43 18a.558.558 0 0 0-.404.176.616.616 0 0 0-.167.424c0 .16.06.312.167.424a.558.558 0 0 0 .404.176.558.558 0 0 0 .404-.176.616.616 0 0 0 .168-.424Zm9.714 0c0 .636-.24 1.247-.669 1.697-.429.45-1.01.703-1.616.703a2.232 2.232 0 0 1-1.617-.703 2.462 2.462 0 0 1-.67-1.697c0-.637.242-1.247.67-1.697a2.232 2.232 0 0 1 1.617-.703c.606 0 1.187.253 1.616.703.429.45.67 1.06.67 1.697Zm-1.714 0c0-.16-.06-.312-.167-.424A.558.558 0 0 0 15.43 18a.558.558 0 0 0-.404.176.616.616 0 0 0-.168.424c0 .16.06.312.168.424a.558.558 0 0 0 .404.176.558.558 0 0 0 .404-.176A.616.616 0 0 0 16 18.6Z" fill="currentColor"/></svg><svg fill="none" viewBox="0 0 18 12" id="burger" xmlns="http://www.w3.org/2000/svg"><path d="M1 1h16M1 6h16M1 11h16" stroke="#262121" stroke-linecap="round"/></svg><svg fill="none" viewBox="0 0 15 15" id="cabinet-user" xmlns="http://www.w3.org/2000/svg"><path fill-rule="evenodd" clip-rule="evenodd" d="M7.499 4.218a1.503 1.503 0 1 0 0 3.006 1.503 1.503 0 0 0 0-3.006ZM5.528 5.72a1.97 1.97 0 1 1 3.942 0 1.97 1.97 0 0 1-3.942 0Z" fill="#262121" stroke="#262121" stroke-width=".2"/><path fill-rule="evenodd" clip-rule="evenodd" d="M4.848 8.495a3.75 3.75 0 0 1 6.402 2.652v.233h-7.5v-.234a3.75 3.75 0 0 1 1.098-2.651Zm2.652-.63a3.282 3.282 0 0 0-3.274 3.048h6.548A3.282 3.282 0 0 0 7.5 7.864Z" fill="#262121" stroke="#262121" stroke-width=".2"/><circle cx="7.5" cy="7.5" r="7.25" stroke="#262121" stroke-width=".5"/></svg><svg fill="none" viewBox="0 0 11 6" id="catalog-arrow" xmlns="http://www.w3.org/2000/svg"><path d="M.244.248a.836.836 0 0 0 0 1.18l4.078 4.083a1.665 1.665 0 0 0 2.357 0l4.077-4.085a.836.836 0 0 0 0-1.181.832.832 0 0 0-1.179 0L6.087 3.74a.832.832 0 0 1-1.178 0L1.423.248a.832.832 0 0 0-1.179 0Z" fill="#fff"/></svg><svg fill="none" viewBox="0 0 15 11" id="catalog-lines" xmlns="http://www.w3.org/2000/svg"><path d="M1 1h13M1 5.333h13M1 9.667h13" stroke="#fff" stroke-width="2" stroke-linecap="round"/></svg><svg fill="none" viewBox="0 0 27 21" id="compare" xmlns="http://www.w3.org/2000/svg"><path d="m7.5 21-1.062-1.071 4.643-4.648H0V13.78h11.08L6.439 9.132 7.5 8.06l6.462 6.47L7.5 21Zm12-8.059-6.462-6.47L19.5 0l1.062 1.073-4.641 4.647H27v1.502H15.921l4.641 4.648-1.062 1.071Z" fill="#262121"/></svg><svg fill="none" viewBox="0 0 25 22" id="favorite" xmlns="http://www.w3.org/2000/svg"><path d="M22.227 2.768A6.053 6.053 0 0 0 17.947 1a6.068 6.068 0 0 0-4.281 1.768L12.5 3.931l-1.167-1.163a6.063 6.063 0 0 0-8.56 0 6.026 6.026 0 0 0 0 8.535L12.5 21l9.727-9.697A6.034 6.034 0 0 0 24 7.035a6.018 6.018 0 0 0-1.773-4.267Z" stroke="#262121" stroke-width="2" stroke-linecap="round" stroke-linejoin="round"/></svg><svg fill="none" viewBox="0 0 21 20" id="search" xmlns="http://www.w3.org/2000/svg"><path fill-rule="evenodd" clip-rule="evenodd" d="M8.863 2a6 6 0 1 0 4.239 10.247l.008-.009.007-.006A6 6 0 0 0 8.863 2Zm7.569 12.15c-.712-.714-.755-1.836-.326-2.748a8 8 0 1 0-3.836 3.838c.913-.43 2.038-.387 2.752.327l4.134 4.14a1 1 0 1 0 1.415-1.414l-4.14-4.144Z" fill="#fff"/></svg><svg fill="none" viewBox="0 0 22 20" id="star" xmlns="http://www.w3.org/2000/svg"><path d="m11 0 2.47 7.6h7.992l-6.466 4.698 2.47 7.601L11 15.202l-6.466 4.697 2.47-7.6L.538 7.6H8.53L11 0Z" fill="#E44900"/></svg><svg fill="none" viewBox="0 0 21 22" id="user" xmlns="http://www.w3.org/2000/svg"><path fill-rule="evenodd" clip-rule="evenodd" d="M10.5 1.31a4.209 4.209 0 1 0 0 8.417 4.209 4.209 0 0 0 0-8.417ZM4.98 5.518a5.518 5.518 0 1 1 11.037 0 5.518 5.518 0 0 1-11.037 0Z" fill="#262121"/><path fill-rule="evenodd" clip-rule="evenodd" d="M3.075 13.285A10.5 10.5 0 0 1 21 20.71v.655H0v-.655a10.5 10.5 0 0 1 3.075-7.425ZM10.5 11.52a9.19 9.19 0 0 0-9.167 8.535h18.334A9.19 9.19 0 0 0 10.5 11.52Z" fill="#262121"/></svg></svg>