<svg width="55" height="55" viewBox="0 0 55 55" fill="none" xmlns="http://www.w3.org/2000/svg">
<circle cx="27.5" cy="27.5" r="27.5" fill="white"/>
<g clip-path="url(#clip0_583_1752)">
<path fill-rule="evenodd" clip-rule="evenodd" d="M12.013 36C12.5589 36 12.9653 36.1419 13.2322 36.4258C13.499 36.7096 13.6325 37.1258 13.6325 37.6742V38.5582C13.6325 39.1067 13.499 39.5229 13.2322 39.8067C12.9653 40.0905 12.5589 40.2325 12.013 40.2325H11.5025V42.7835H10.4155V36H12.013ZM11.4989 36.967V39.2655H12.013C12.1844 39.2655 12.3153 39.2198 12.4059 39.1284C12.499 39.0393 12.5455 38.871 12.5455 38.6232V37.6057C12.5455 37.3603 12.499 37.1931 12.4059 37.1041C12.3153 37.0127 12.1844 36.967 12.013 36.967H11.4989Z" fill="#0D1619"/>
<path d="M15.3475 38.8577H16.8385V39.8283H15.3475V41.8129H17.2204V42.7835H14.2642V36H17.2204V36.967H15.3475V38.8577Z" fill="#0D1619"/>
<path d="M20.3087 40.817L21.0505 36H22.5598V42.7835H21.5315V37.916L20.7824 42.7835H19.7578L18.9462 37.9845V42.7835H18.0024V36H19.5118L20.3087 40.817Z" fill="#0D1619"/>
<path fill-rule="evenodd" clip-rule="evenodd" d="M23.3862 37.6266C23.3862 37.0782 23.5282 36.656 23.8122 36.3601C24.0938 36.0667 24.5014 35.9199 25.0351 35.9199C25.5664 35.9199 25.974 36.0667 26.258 36.3601C26.5395 36.656 26.6803 37.0782 26.6803 37.6266V41.1555C26.6803 41.7039 26.5395 42.1249 26.258 42.4184C25.974 42.7118 25.5664 42.8586 25.0351 42.8586C24.5014 42.8586 24.0938 42.7118 23.8122 42.4184C23.5282 42.1249 23.3862 41.7039 23.3862 41.1555V37.6266ZM24.4732 41.2204C24.4732 41.4658 24.5234 41.639 24.6238 41.74C24.7266 41.8387 24.8637 41.888 25.0351 41.888C25.2065 41.888 25.3424 41.8387 25.4427 41.74C25.5456 41.639 25.597 41.4658 25.597 41.2204V37.5581C25.597 37.3127 25.5456 37.1395 25.4427 37.0385C25.3424 36.9374 25.2065 36.8869 25.0351 36.8869C24.8637 36.8869 24.7266 36.9374 24.6238 37.0385C24.5234 37.1395 24.4732 37.3127 24.4732 37.5581V41.2204Z" fill="#0D1619"/>
<path d="M28.5936 42.7835H27.5103V36H28.5936V38.9046H29.8275V36H30.9329V42.7835H29.8275V39.8753H28.5936V42.7835Z" fill="#0D1619"/>
<path d="M31.5645 36H34.9173V36.967H33.7825V42.7835H32.6992V36.967H31.5645V36Z" fill="#0D1619"/>
<path fill-rule="evenodd" clip-rule="evenodd" d="M37.0176 42.7835C37.0714 42.6536 37.1045 42.5261 37.1167 42.401C37.129 42.2735 37.1351 42.1256 37.1351 41.9572V40.9108C37.1351 40.5572 37.1865 40.2553 37.2893 40.0052C37.3922 39.7574 37.5819 39.5782 37.8585 39.4675C37.3836 39.2486 37.1461 38.7904 37.1461 38.0928V37.5588C37.1461 37.0344 37.2734 36.6435 37.528 36.3861C37.7802 36.1287 38.189 36 38.7546 36H40.3924V42.7835H39.3054V40.0196H38.9309C38.6811 40.0196 38.5012 40.0845 38.391 40.2144C38.2784 40.3443 38.2221 40.5668 38.2221 40.882V41.95C38.2221 42.0847 38.2209 42.1978 38.2184 42.2892C38.2135 42.3782 38.2062 42.4527 38.1964 42.5129C38.1866 42.5706 38.1756 42.6187 38.1633 42.6572C38.1486 42.6957 38.1352 42.7378 38.1229 42.7835H37.0176ZM38.784 36.967C38.593 36.967 38.4535 37.0223 38.3653 37.133C38.2747 37.2436 38.2294 37.4216 38.2294 37.667V38.3345C38.2294 38.6064 38.287 38.794 38.402 38.8974C38.5171 39.0009 38.6775 39.0526 38.8831 39.0526H39.3054V36.967H38.784Z" fill="#0D1619"/>
<path d="M43.6278 40.817L44.3659 36H45.8752V42.7835H44.8506V37.916L44.1015 42.7835H43.0732L42.2653 37.9845V42.7835H41.3179V36H42.8272L43.6278 40.817Z" fill="#0D1619"/>
<path d="M20.4813 15.0859H7.01123C8.13986 16.4306 9.26848 17.7753 10.3971 19.12H20.4556C21.2231 19.12 21.8437 19.7298 21.8437 20.4839C21.8437 20.8627 21.6895 21.2019 21.4398 21.4473C21.1864 21.6962 20.8412 21.8478 20.4556 21.8478H14.5285V21.8442H10.4155V21.8478V25.8746V32.2973H14.5285V25.8746H20.4813C21.998 25.8746 23.3714 25.272 24.3629 24.2942C25.3581 23.32 25.9714 21.9705 25.9714 20.4803C25.9714 17.4999 23.5146 15.0859 20.4813 15.0859Z" fill="#0D1619"/>
<path d="M32.4309 21.8478C32.0453 21.8478 31.7001 21.6962 31.4467 21.4473C31.197 21.2019 31.0427 20.8627 31.0427 20.4839C31.0427 19.7298 31.6633 19.12 32.4309 19.12H42.4893C43.618 17.7753 44.7466 16.4306 45.8752 15.0859H32.4052C29.3718 15.0859 26.915 17.4999 26.915 20.4803C26.915 21.9705 27.5283 23.32 28.5235 24.2942C29.515 25.272 30.8885 25.8746 32.4052 25.8746H32.5888L27.1097 32.2792H31.219L36.6981 25.8746L40.1427 21.8478H36.0334H32.4309Z" fill="#E44900"/>
<path d="M42.0562 32.3015H45.9158V27.5566C44.628 29.1371 43.3415 30.7187 42.0562 32.3015Z" fill="#E44900"/>
</g>
<defs>
<clipPath id="clip0_583_1752">
<rect width="39" height="28" fill="white" transform="translate(7 15)"/>
</clipPath>
</defs>
</svg>
