<svg width="20" height="20" viewBox="0 0 20 20" fill="none" xmlns="http://www.w3.org/2000/svg">
<g clip-path="url(#clip0_307_1550)">
<path d="M10 19.5852C11.021 19.2579 13.2163 18.4026 15.146 16.2776C16.9217 14.3222 17.5903 12.2636 17.8517 11.2299C17.8517 9.4879 17.8517 7.74623 17.8517 6.00423C17.8517 5.19356 17.8517 4.3829 17.8517 3.57223C17.1527 3.34823 16.4343 3.0969 15.7 2.8149C13.5527 1.99056 11.653 1.05156 10 0.101562C10 6.59623 10 13.0909 10 19.5852Z" fill="#FD5200"/>
<path d="M9.99998 19.5852C8.97898 19.2579 6.78365 18.4026 4.85398 16.2776C3.07832 14.3222 2.40965 12.2636 2.14832 11.2299C2.14832 9.4879 2.14832 7.74623 2.14832 6.00423C2.14832 5.19356 2.14832 4.3829 2.14832 3.57223C2.84732 3.34823 3.56565 3.0969 4.29998 2.8149C6.44732 1.99056 8.34698 1.05156 9.99998 0.101562C9.99998 6.59623 9.99998 13.0909 9.99998 19.5852Z" fill="#FD5200"/>
<path d="M5.84193 9.43276C6.69193 10.2761 7.54193 11.1194 8.39193 11.9628C10.3306 9.97376 12.2696 7.98509 14.2083 5.99609C14.5959 6.38376 14.9836 6.77143 15.3709 7.15876C13.0446 9.53009 10.7183 11.9018 8.39193 14.2731C7.14893 13.0441 5.9056 11.8151 4.6626 10.5858C5.0556 10.2021 5.4486 9.81743 5.84193 9.43276Z" fill="white"/>
</g>
<defs>
<clipPath id="clip0_307_1550">
<rect width="20" height="20" fill="white"/>
</clipPath>
</defs>
</svg>
