<svg width="24" height="24" viewBox="0 0 24 24" fill="none" xmlns="http://www.w3.org/2000/svg">
<path d="M21.4856 3.16336C18.5327 4.3864 5.87075 9.63112 2.37227 11.0606C0.0260287 11.9762 1.39955 12.8346 1.39955 12.8346C1.39955 12.8346 3.40235 13.5213 5.11931 14.0363C6.83603 14.5514 7.75163 13.9792 7.75163 13.9792L15.8204 8.54272C18.6817 6.59704 17.9951 8.19928 17.3082 8.88616C15.8204 10.3742 13.3597 12.7202 11.2995 14.6087C10.3839 15.4098 10.8416 16.0965 11.2424 16.4399C12.7302 17.699 16.7934 20.2742 17.0221 20.4458C18.231 21.3016 20.6089 22.5335 20.9706 19.9307L22.4012 10.9463C22.8591 7.91344 23.3168 5.10928 23.3739 4.30816C23.5458 2.36224 21.4856 3.16336 21.4856 3.16336Z" fill="#1B92D1"/>
</svg>
